# Created by Kenney (www.kenney.nl)

mtllib bullet-foam.mtl

g bullet-foam

v -0.0075 0 -0.0075 1 1 1
v -0.0075 0.05 -0.0075 1 1 1
v -0.01 0 0 1 1 1
v -0.01 0.05 0 1 1 1
v 0 0 -0.01 1 1 1
v 0 0.05 -0.01 1 1 1
v 0.0075 0 -0.0075 1 1 1
v 0.0075 0.05 -0.0075 1 1 1
v 0.01 0.05 9.023893E-17 1 1 1
v 0.01 0 9.023893E-17 1 1 1
v 0 0 0.01 1 1 1
v -0.0075 0 0.0075 1 1 1
v 0 0.05 0.01 1 1 1
v -0.0075 0.05 0.0075 1 1 1
v 0.0075 0 0.0075 1 1 1
v 0.0075 0.05 0.0075 1 1 1

vn -0.7071068 0 -0.7071068
vn -1 0 0
vn 0 0 -1
vn 0.7071068 0 -0.7071068
vn 1 0 0
vn 0 0 1
vn -0.7071068 0 0.7071068
vn 0 -1 0
vn 0.7071068 0 0.7071068
vn 0 1 0

vt 0.34375 0.275
vt 0.34375 0.475

usemtl colormap

f 3/1/2 2/2/1 1/1/1
f 2/2/1 3/1/2 4/2/2
f 2/2/1 5/1/3 1/1/1
f 5/1/3 2/2/1 6/2/3
f 6/2/3 7/1/4 5/1/3
f 7/1/4 6/2/3 8/2/4
f 9/2/5 7/1/4 8/2/4
f 7/1/4 9/2/5 10/1/5
f 13/2/6 12/1/7 11/1/6
f 12/1/7 13/2/6 14/2/7
f 15/1/8 7/1/8 10/1/8
f 7/1/8 15/1/8 11/1/8
f 7/1/8 11/1/8 5/1/8
f 5/1/8 11/1/8 12/1/8
f 5/1/8 12/1/8 1/1/8
f 1/1/8 12/1/8 3/1/8
f 16/2/9 10/1/5 9/2/5
f 10/1/5 16/2/9 15/1/9
f 16/2/9 11/1/6 15/1/9
f 11/1/6 16/2/9 13/2/6
f 12/1/7 4/2/2 3/1/2
f 4/2/2 12/1/7 14/2/7
f 8/2/10 16/2/10 9/2/10
f 16/2/10 8/2/10 6/2/10
f 16/2/10 6/2/10 13/2/10
f 13/2/10 6/2/10 2/2/10
f 13/2/10 2/2/10 14/2/10
f 14/2/10 2/2/10 4/2/10

g bullet-foam




usemtl colormap

f 3/1/2 2/2/1 1/1/1
f 2/2/1 3/1/2 4/2/2
f 2/2/1 5/1/3 1/1/1
f 5/1/3 2/2/1 6/2/3
f 6/2/3 7/1/4 5/1/3
f 7/1/4 6/2/3 8/2/4
f 9/2/5 7/1/4 8/2/4
f 7/1/4 9/2/5 10/1/5
f 13/2/6 12/1/7 11/1/6
f 12/1/7 13/2/6 14/2/7
f 15/1/8 7/1/8 10/1/8
f 7/1/8 15/1/8 11/1/8
f 7/1/8 11/1/8 5/1/8
f 5/1/8 11/1/8 12/1/8
f 5/1/8 12/1/8 1/1/8
f 1/1/8 12/1/8 3/1/8
f 16/2/9 10/1/5 9/2/5
f 10/1/5 16/2/9 15/1/9
f 16/2/9 11/1/6 15/1/9
f 11/1/6 16/2/9 13/2/6
f 12/1/7 4/2/2 3/1/2
f 4/2/2 12/1/7 14/2/7
f 8/2/10 16/2/10 9/2/10
f 16/2/10 8/2/10 6/2/10
f 16/2/10 6/2/10 13/2/10
f 13/2/10 6/2/10 2/2/10
f 13/2/10 2/2/10 14/2/10
f 14/2/10 2/2/10 4/2/10

