# Created by Kenney (www.kenney.nl)

mtllib bullet-foam-tip-thick.mtl

g bullet-foam-tip-thick

v -0.01125 0 -0.01125 1 1 1
v -0.01125 0.035 -0.01125 1 1 1
v -0.015 0 3.609557E-16 1 1 1
v -0.015 0.035 3.609557E-16 1 1 1
v 0 0 -0.015 1 1 1
v 0 0.035 -0.015 1 1 1
v 0.01125 0 -0.01125 1 1 1
v 0.01125 0.035 -0.01125 1 1 1
v 0.015 0.035 3.609557E-16 1 1 1
v 0.015 0 3.609557E-16 1 1 1
v 0 0 0.015 1 1 1
v -0.01125 0 0.01125 1 1 1
v 0 0.035 0.015 1 1 1
v -0.01125 0.035 0.01125 1 1 1
v 0.01125 0 0.01125 1 1 1
v 0.01125 0.035 0.01125 1 1 1
v 0.01125 0.05 3.609557E-16 1 1 1
v 0.008437499 0.05 0.008437499 1 1 1
v 0.008437499 0.05 -0.008437499 1 1 1
v 0 0.05 -0.01125 1 1 1
v 0 0.05 0.01125 1 1 1
v -0.008437499 0.05 -0.008437499 1 1 1
v -0.008437499 0.05 0.008437499 1 1 1
v -0.01125 0.05 3.609557E-16 1 1 1

vn -0.7071068 0 -0.7071068
vn -1 0 0
vn 0 0 -1
vn 0.7071068 0 -0.7071068
vn 1 0 0
vn 0 0 1
vn -0.7071068 0 0.7071068
vn 0 -1 0
vn 0.7071068 0 0.7071068
vn 0 1 0
vn 0 0.2425356 0.9701425
vn -0.6834862 0.2563073 0.6834862
vn 0.6834862 0.2563073 0.6834862
vn 0 0.2425356 -0.9701425
vn 0.6834862 0.2563073 -0.6834862
vn 0.9701425 0.2425356 0
vn -0.6834862 0.2563073 -0.6834862
vn -0.9701425 0.2425356 0

vt 0.34375 0.275
vt 0.34375 0.415
vt 0.59375 0.475
vt 0.59375 0.415

usemtl colormap

f 3/1/2 2/2/1 1/1/1
f 2/2/1 3/1/2 4/2/2
f 2/2/1 5/1/3 1/1/1
f 5/1/3 2/2/1 6/2/3
f 6/2/3 7/1/4 5/1/3
f 7/1/4 6/2/3 8/2/4
f 9/2/5 7/1/4 8/2/4
f 7/1/4 9/2/5 10/1/5
f 13/2/6 12/1/7 11/1/6
f 12/1/7 13/2/6 14/2/7
f 15/1/8 7/1/8 10/1/8
f 7/1/8 15/1/8 11/1/8
f 7/1/8 11/1/8 5/1/8
f 5/1/8 11/1/8 12/1/8
f 5/1/8 12/1/8 1/1/8
f 1/1/8 12/1/8 3/1/8
f 16/2/9 10/1/5 9/2/5
f 10/1/5 16/2/9 15/1/9
f 16/2/9 11/1/6 15/1/9
f 11/1/6 16/2/9 13/2/6
f 12/1/7 4/2/2 3/1/2
f 4/2/2 12/1/7 14/2/7
f 19/3/10 18/3/10 17/3/10
f 18/3/10 19/3/10 20/3/10
f 18/3/10 20/3/10 21/3/10
f 21/3/10 20/3/10 22/3/10
f 21/3/10 22/3/10 23/3/10
f 23/3/10 22/3/10 24/3/10
f 21/3/11 14/4/12 13/4/11
f 14/4/12 21/3/11 23/3/12
f 18/3/13 13/4/11 16/4/13
f 13/4/11 18/3/13 21/3/11
f 20/3/14 8/4/15 6/4/14
f 8/4/15 20/3/14 19/3/15
f 18/3/13 9/4/16 17/3/16
f 9/4/16 18/3/13 16/4/13
f 19/3/15 9/4/16 8/4/15
f 9/4/16 19/3/15 17/3/16
f 22/3/17 6/4/14 2/4/17
f 6/4/14 22/3/17 20/3/14
f 4/4/18 22/3/17 2/4/17
f 22/3/17 4/4/18 24/3/18
f 14/4/12 24/3/18 4/4/18
f 24/3/18 14/4/12 23/3/12

g bullet-foam-tip-thick




usemtl colormap

f 3/1/2 2/2/1 1/1/1
f 2/2/1 3/1/2 4/2/2
f 2/2/1 5/1/3 1/1/1
f 5/1/3 2/2/1 6/2/3
f 6/2/3 7/1/4 5/1/3
f 7/1/4 6/2/3 8/2/4
f 9/2/5 7/1/4 8/2/4
f 7/1/4 9/2/5 10/1/5
f 13/2/6 12/1/7 11/1/6
f 12/1/7 13/2/6 14/2/7
f 15/1/8 7/1/8 10/1/8
f 7/1/8 15/1/8 11/1/8
f 7/1/8 11/1/8 5/1/8
f 5/1/8 11/1/8 12/1/8
f 5/1/8 12/1/8 1/1/8
f 1/1/8 12/1/8 3/1/8
f 16/2/9 10/1/5 9/2/5
f 10/1/5 16/2/9 15/1/9
f 16/2/9 11/1/6 15/1/9
f 11/1/6 16/2/9 13/2/6
f 12/1/7 4/2/2 3/1/2
f 4/2/2 12/1/7 14/2/7
f 19/3/10 18/3/10 17/3/10
f 18/3/10 19/3/10 20/3/10
f 18/3/10 20/3/10 21/3/10
f 21/3/10 20/3/10 22/3/10
f 21/3/10 22/3/10 23/3/10
f 23/3/10 22/3/10 24/3/10
f 21/3/11 14/4/12 13/4/11
f 14/4/12 21/3/11 23/3/12
f 18/3/13 13/4/11 16/4/13
f 13/4/11 18/3/13 21/3/11
f 20/3/14 8/4/15 6/4/14
f 8/4/15 20/3/14 19/3/15
f 18/3/13 9/4/16 17/3/16
f 9/4/16 18/3/13 16/4/13
f 19/3/15 9/4/16 8/4/15
f 9/4/16 19/3/15 17/3/16
f 22/3/17 6/4/14 2/4/17
f 6/4/14 22/3/17 20/3/14
f 4/4/18 22/3/17 2/4/17
f 22/3/17 4/4/18 24/3/18
f 14/4/12 24/3/18 4/4/18
f 24/3/18 14/4/12 23/3/12

