# Created by Kenney (www.kenney.nl)

mtllib clip-small.mtl

g clip-small

v -0.02 0.1357926 -0.045 1 1 1
v 0.02 0.1357926 -0.045 1 1 1
v -0.01414214 0.1499348 -0.045 1 1 1
v 0.01414214 0.1499348 -0.045 1 1 1
v 0 0.1557926 -0.045 1 1 1
v 0.02 0.1357926 0.045 1 1 1
v -0.02 0.1357926 0.045 1 1 1
v 0.01414214 0.1499348 0.045 1 1 1
v -0.01414214 0.1499348 0.045 1 1 1
v 0 0.1557926 0.045 1 1 1
v -0.01 0.04354102 -0.045 1 1 1
v -0.01 0.1057926 -0.045 1 1 1
v -0.01 0.03 -0.01791796 1 1 1
v -0.01 0.1057926 0.045 1 1 1
v -0.01 0.03 0.045 1 1 1
v 0.01 0.1057926 -0.045 1 1 1
v 0.01 0.04354102 -0.045 1 1 1
v 0.01 0.1057926 0.045 1 1 1
v 0.01 0.03 -0.01791796 1 1 1
v 0.01 0.03 0.045 1 1 1
v 0.03 0 -0.025 1 1 1
v 0.03 0.025 -0.075 1 1 1
v -0.03 0 -0.025 1 1 1
v -0.03 0.025 -0.075 1 1 1
v 0.03 0 0.065 1 1 1
v -0.03 0 0.065 1 1 1
v -0.03 0.1357926 -0.075 1 1 1
v 0.03 0.1357926 -0.075 1 1 1
v 0.03 0.01 0.075 1 1 1
v 0.03 0.1357926 0.075 1 1 1
v 0.03 0.03 0.045 1 1 1
v 0.03 0.03 -0.01791796 1 1 1
v 0.03 0.1057926 0.045 1 1 1
v 0.03 0.04354102 -0.045 1 1 1
v 0.03 0.1057926 -0.045 1 1 1
v -0.03 0.01 0.075 1 1 1
v -0.03 0.1357926 0.075 1 1 1
v -0.03 0.1057926 0.045 1 1 1
v -0.03 0.03 0.045 1 1 1
v -0.03 0.1057926 -0.045 1 1 1
v -0.03 0.03 -0.01791796 1 1 1
v -0.03 0.04354102 -0.045 1 1 1
v 0.01 0.1057926 0.045 1 1 1
v -0.01 0.1057926 0.045 1 1 1
v -0.01 0.1057926 -0.045 1 1 1
v 0.01 0.1057926 -0.045 1 1 1

vn 0 0 -1
vn 0 0 1
vn 0.7071068 0.7071068 0
vn 0.9238795 0.3826834 0
vn 0 1 0
vn -0.7071068 0.7071068 0
vn -0.9238795 0.3826834 0
vn -1 0 0
vn 1 0 0
vn 0 -0.973249 -0.2297529
vn 0 -0.5257311 -0.8506508
vn 0 -0.9238795 0.3826834
vn 0 -0.3826834 0.9238795
vn 0 0.7071068 -0.7071068
vn 0 0.973249 0.2297529
vn 0 0.5257311 0.8506508
vn 0 -1 0

vt 0.34375 0.275
vt 0.34375 0.4164214
vt 0.34375 0.475
vt 0.46875 0.075
vt 0.46875 0.175
vt 0.46875 0.1466426
vt 0.46875 0.08779959
vt 0.21875 0.075
vt 0.21875 0.1466426
vt 0.21875 0.08779959

usemtl colormap

f 3/2/1 2/1/1 1/1/1
f 2/1/1 3/2/1 4/2/1
f 4/2/1 3/2/1 5/3/1
f 8/2/2 7/1/2 6/1/2
f 7/1/2 8/2/2 9/2/2
f 9/2/2 8/2/2 10/3/2
f 8/2/3 2/1/4 4/2/3
f 2/1/4 8/2/3 6/1/4
f 5/3/5 8/2/3 4/2/3
f 8/2/3 5/3/5 10/3/5
f 3/2/6 10/3/5 5/3/5
f 10/3/5 3/2/6 9/2/6
f 7/1/7 3/2/6 1/1/7
f 3/2/6 7/1/7 9/2/6
f 13/4/8 12/5/8 11/4/8
f 12/5/8 13/4/8 14/5/8
f 14/5/8 13/4/8 15/4/8
f 18/5/9 17/4/9 16/5/9
f 17/4/9 18/5/9 19/4/9
f 19/4/9 18/5/9 20/4/9
f 23/4/10 22/4/11 21/4/10
f 22/4/11 23/4/10 24/4/11
f 26/4/12 21/4/10 25/4/12
f 21/4/10 26/4/12 23/4/10
f 27/5/1 22/4/11 24/4/11
f 22/4/11 27/5/1 28/5/1
f 25/4/9 30/5/9 29/4/9
f 31/4/9 30/5/9 25/4/9
f 25/4/9 32/4/9 31/4/9
f 33/6/9 30/5/9 31/4/9
f 21/4/9 32/4/9 25/4/9
f 21/4/9 34/7/9 32/4/9
f 22/4/9 34/7/9 21/4/9
f 35/6/9 30/5/9 33/6/9
f 34/7/9 22/4/9 35/6/9
f 35/6/9 28/5/9 30/5/9
f 28/5/9 35/6/9 22/4/9
f 30/5/2 36/4/13 29/4/13
f 36/4/13 30/5/2 37/5/2
f 29/4/13 26/4/12 25/4/12
f 26/4/12 29/4/13 36/4/13
f 27/5/5 30/5/5 28/5/5
f 30/5/5 27/5/5 37/5/5
f 37/5/8 26/4/8 36/4/8
f 37/5/8 38/6/8 26/4/8
f 39/4/8 26/4/8 38/6/8
f 37/5/8 40/6/8 38/6/8
f 41/4/8 26/4/8 39/4/8
f 27/5/8 40/6/8 37/5/8
f 41/4/8 23/4/8 26/4/8
f 40/6/8 27/5/8 42/7/8
f 42/7/8 23/4/8 41/4/8
f 24/4/8 42/7/8 27/5/8
f 42/7/8 24/4/8 23/4/8
f 43/9/1 31/8/14 20/8/14
f 31/8/14 43/9/1 33/9/1
f 19/8/15 31/8/14 32/8/15
f 31/8/14 19/8/15 20/8/14
f 17/10/16 32/8/15 34/10/16
f 32/8/15 17/10/16 19/8/15
f 38/9/1 15/8/14 39/8/14
f 15/8/14 38/9/1 44/9/1
f 42/10/16 13/8/15 11/10/16
f 13/8/15 42/10/16 41/8/15
f 41/8/15 15/8/14 13/8/15
f 15/8/14 41/8/15 39/8/14
f 45/9/2 42/10/16 11/10/16
f 42/10/16 45/9/2 40/9/2
f 35/9/2 17/10/16 34/10/16
f 17/10/16 35/9/2 46/9/2
f 45/9/17 38/9/17 40/9/17
f 38/9/17 45/9/17 44/9/17
f 46/9/17 44/9/17 45/9/17
f 44/9/17 46/9/17 43/9/17
f 35/9/17 43/9/17 46/9/17
f 43/9/17 35/9/17 33/9/17

g clip-small




usemtl colormap

f 3/2/1 2/1/1 1/1/1
f 2/1/1 3/2/1 4/2/1
f 4/2/1 3/2/1 5/3/1
f 8/2/2 7/1/2 6/1/2
f 7/1/2 8/2/2 9/2/2
f 9/2/2 8/2/2 10/3/2
f 8/2/3 2/1/4 4/2/3
f 2/1/4 8/2/3 6/1/4
f 5/3/5 8/2/3 4/2/3
f 8/2/3 5/3/5 10/3/5
f 3/2/6 10/3/5 5/3/5
f 10/3/5 3/2/6 9/2/6
f 7/1/7 3/2/6 1/1/7
f 3/2/6 7/1/7 9/2/6
f 13/4/8 12/5/8 11/4/8
f 12/5/8 13/4/8 14/5/8
f 14/5/8 13/4/8 15/4/8
f 18/5/9 17/4/9 16/5/9
f 17/4/9 18/5/9 19/4/9
f 19/4/9 18/5/9 20/4/9
f 23/4/10 22/4/11 21/4/10
f 22/4/11 23/4/10 24/4/11
f 26/4/12 21/4/10 25/4/12
f 21/4/10 26/4/12 23/4/10
f 27/5/1 22/4/11 24/4/11
f 22/4/11 27/5/1 28/5/1
f 25/4/9 30/5/9 29/4/9
f 31/4/9 30/5/9 25/4/9
f 25/4/9 32/4/9 31/4/9
f 33/6/9 30/5/9 31/4/9
f 21/4/9 32/4/9 25/4/9
f 21/4/9 34/7/9 32/4/9
f 22/4/9 34/7/9 21/4/9
f 35/6/9 30/5/9 33/6/9
f 34/7/9 22/4/9 35/6/9
f 35/6/9 28/5/9 30/5/9
f 28/5/9 35/6/9 22/4/9
f 30/5/2 36/4/13 29/4/13
f 36/4/13 30/5/2 37/5/2
f 29/4/13 26/4/12 25/4/12
f 26/4/12 29/4/13 36/4/13
f 27/5/5 30/5/5 28/5/5
f 30/5/5 27/5/5 37/5/5
f 37/5/8 26/4/8 36/4/8
f 37/5/8 38/6/8 26/4/8
f 39/4/8 26/4/8 38/6/8
f 37/5/8 40/6/8 38/6/8
f 41/4/8 26/4/8 39/4/8
f 27/5/8 40/6/8 37/5/8
f 41/4/8 23/4/8 26/4/8
f 40/6/8 27/5/8 42/7/8
f 42/7/8 23/4/8 41/4/8
f 24/4/8 42/7/8 27/5/8
f 42/7/8 24/4/8 23/4/8
f 43/9/1 31/8/14 20/8/14
f 31/8/14 43/9/1 33/9/1
f 19/8/15 31/8/14 32/8/15
f 31/8/14 19/8/15 20/8/14
f 17/10/16 32/8/15 34/10/16
f 32/8/15 17/10/16 19/8/15
f 38/9/1 15/8/14 39/8/14
f 15/8/14 38/9/1 44/9/1
f 42/10/16 13/8/15 11/10/16
f 13/8/15 42/10/16 41/8/15
f 41/8/15 15/8/14 13/8/15
f 15/8/14 41/8/15 39/8/14
f 45/9/2 42/10/16 11/10/16
f 42/10/16 45/9/2 40/9/2
f 35/9/2 17/10/16 34/10/16
f 17/10/16 35/9/2 46/9/2
f 45/9/17 38/9/17 40/9/17
f 38/9/17 45/9/17 44/9/17
f 46/9/17 44/9/17 45/9/17
f 44/9/17 46/9/17 43/9/17
f 35/9/17 43/9/17 46/9/17
f 43/9/17 35/9/17 33/9/17

