# Created by Kenney (www.kenney.nl)

mtllib scope-large-a.mtl

g scope-large-a

v 0.005 0.03 -0.22 1 1 1
v 0.03328427 0.04171573 -0.22 1 1 1
v -0.02328427 0.04171573 -0.22 1 1 1
v 0.005 0.04623589 -0.22 1 1 1
v -0.01180377 0.05319623 -0.22 1 1 1
v 0.02180377 0.05319623 -0.22 1 1 1
v -0.035 0.07 -0.22 1 1 1
v -0.01876412 0.07 -0.22 1 1 1
v 0.045 0.07 -0.22 1 1 1
v 0.02876412 0.07 -0.22 1 1 1
v 0.02180377 0.08680377 -0.22 1 1 1
v -0.02328427 0.09828427 -0.22 1 1 1
v 0.03328427 0.09828427 -0.22 1 1 1
v -0.01180377 0.08680377 -0.22 1 1 1
v 0.005 0.11 -0.22 1 1 1
v 0.005 0.09376412 -0.22 1 1 1
v 0.03328427 0.09828427 -0.14 1 1 1
v 0.045 0.07 -0.14 1 1 1
v 0.005 0.11 -0.14 1 1 1
v -0.02328427 0.09828427 -0.14 1 1 1
v -0.035 0.07 -0.14 1 1 1
v -0.02328427 0.04171573 -0.14 1 1 1
v 0.005 0.03 -0.14 1 1 1
v 0.03328427 0.04171573 -0.14 1 1 1
v -0.01401129 0.07 -0.2 1 1 1
v -0.008443014 0.05655698 -0.2 1 1 1
v 0.005 0.0890113 -0.2 1 1 1
v -0.008443014 0.08344302 -0.2 1 1 1
v 0.01844301 0.05655698 -0.2 1 1 1
v 0.0240113 0.07 -0.2 1 1 1
v 0.01844301 0.08344302 -0.2 1 1 1
v 0.005 0.05098871 -0.2 1 1 1
v -0.02328427 0.04171573 0.18 1 1 1
v -0.035 0.07 0.18 1 1 1
v -0.02328427 0.04171573 0.22 1 1 1
v -0.035 0.07 0.22 1 1 1
v -0.008443014 0.08344302 0.2 1 1 1
v -0.01401129 0.07 0.2 1 1 1
v -0.01180377 0.08680377 0.22 1 1 1
v -0.01876412 0.07 0.22 1 1 1
v 0.0262132 0.0487868 -0.1 1 1 1
v 0.005 0.04 -0.1 1 1 1
v 0.0262132 0.0487868 0.16 1 1 1
v 0.005 0.04 0.16 1 1 1
v 0.005 0.1 -0.1 1 1 1
v 0.005 0.1 0.16 1 1 1
v -0.0162132 0.0912132 -0.1 1 1 1
v -0.0162132 0.0912132 0.16 1 1 1
v 0.005 0.09376412 0.22 1 1 1
v 0.005 0.0890113 0.2 1 1 1
v -0.008443014 0.05655698 0.2 1 1 1
v -0.01180377 0.05319623 0.22 1 1 1
v 0.0240113 0.07 0.2 1 1 1
v 0.01844301 0.08344302 0.2 1 1 1
v 0.02876412 0.07 0.22 1 1 1
v 0.02180377 0.08680377 0.22 1 1 1
v -0.02328427 0.09828427 0.18 1 1 1
v -0.02328427 0.09828427 0.22 1 1 1
v 0.005 0.03 0.22 1 1 1
v 0.03328427 0.04171573 0.22 1 1 1
v 0.005 0.04623589 0.22 1 1 1
v 0.02180377 0.05319623 0.22 1 1 1
v 0.045 0.07 0.22 1 1 1
v 0.03328427 0.09828427 0.22 1 1 1
v 0.005 0.11 0.22 1 1 1
v 0.005 0.03 0.18 1 1 1
v 0.01844301 0.05655698 0.2 1 1 1
v 0.0262132 0.0912132 -0.1 1 1 1
v 0.035 0.07 -0.1 1 1 1
v 0.0262132 0.0912132 0.16 1 1 1
v 0.035 0.07 0.16 1 1 1
v -0.025 0.07 -0.1 1 1 1
v -0.025 0.07 0.16 1 1 1
v -0.0162132 0.0487868 0.16 1 1 1
v -0.0162132 0.0487868 -0.1 1 1 1
v 0.03328427 0.09828427 0.18 1 1 1
v 0.045 0.07 0.18 1 1 1
v 0.005 0.11 0.18 1 1 1
v 0.005 0.05098871 0.2 1 1 1
v 0.03328427 0.04171573 0.18 1 1 1
v 0.05999999 -4.511946E-17 0.1350381 1 1 1
v 0.05999999 -4.511946E-17 0.08503811 1 1 1
v -0.05 -4.511946E-17 0.1350381 1 1 1
v -0.05 -4.511946E-17 0.08503811 1 1 1
v 0.035 0.07 0.08503811 1 1 1
v 0.035 0.07 0.1350381 1 1 1
v -0.025 0.07 0.08503811 1 1 1
v -0.025 0.07 0.1350381 1 1 1
v 0.05999999 0.045 0.1350381 1 1 1
v -0.05 0.045 0.1350381 1 1 1
v -0.05 0.045 0.08503811 1 1 1
v 0.05999999 0.045 0.08503811 1 1 1
v 0.05999999 0 -0.025 1 1 1
v 0.05999999 0 -0.075 1 1 1
v -0.05 0 -0.025 1 1 1
v -0.05 0 -0.075 1 1 1
v 0.035 0.07 -0.075 1 1 1
v 0.035 0.07 -0.025 1 1 1
v -0.025 0.07 -0.075 1 1 1
v -0.025 0.07 -0.025 1 1 1
v 0.05999999 0.045 -0.025 1 1 1
v -0.05 0.045 -0.025 1 1 1
v -0.05 0.045 -0.075 1 1 1
v 0.05999999 0.045 -0.075 1 1 1

vn 0 0 -1
vn 0.7071068 0.7071068 0
vn 1 0 0
vn 0 1 0
vn -0.7071068 0.7071068 0
vn -1 0 0
vn -0.7071068 -0.7071068 0
vn 0 -1 0
vn 0.7071068 -0.7071068 0
vn 0.9729056 0 -0.2312024
vn 0.6879482 0.6879482 -0.2312025
vn 0 -0.9729056 -0.2312024
vn 0.6879482 -0.6879482 -0.2312025
vn -0.6879482 0.6879482 -0.2312025
vn -0.9729056 0 -0.2312024
vn -0.6879482 -0.6879482 -0.2312025
vn 0 0.9729056 -0.2312024
vn 0.6879482 -0.6879482 0.2312025
vn 0.9729056 0 0.2312024
vn 0 -0.9729056 0.2312024
vn 0.6879482 0.6879482 0.2312025
vn -0.9729056 0 0.2312024
vn -0.6879482 -0.6879482 0.2312025
vn 0 0 1
vn -0.6879482 0.6879482 0.2312025
vn 0 0.9729056 0.2312024
vn 0.6859944 0.6859944 0.2425356
vn 0.9701425 0 0.2425356
vn 0 0.9701425 0.2425356
vn -0.9701425 0 0.2425356
vn -0.6859944 0.6859944 0.2425356
vn -0.6859944 -0.6859944 0.2425356
vn 0 -0.9701425 0.2425356
vn 0.6859944 -0.6859944 0.2425356
vn 0.8944272 0 -0.4472136
vn 0.6324555 -0.6324555 -0.4472136
vn 0.6324555 0.6324555 -0.4472136
vn 0 0.8944272 -0.4472136
vn 0 -0.8944272 -0.4472136
vn -0.6324555 -0.6324555 -0.4472136
vn -0.6324555 0.6324555 -0.4472136
vn -0.8944272 0 -0.4472136
vn 0.3826834 0.9238795 0
vn -0.3826834 0.9238795 0
vn -0.9238795 0.3826834 0
vn 0.9238795 0.3826834 0

vt 0.46875 0.025
vt 0.46875 0.05428932
vt 0.46875 0.06558971
vt 0.46875 0.08299058
vt 0.46875 0.125
vt 0.46875 0.1670094
vt 0.46875 0.1957107
vt 0.46875 0.225
vt 0.46875 0.1844103
vt 0.46875 0.09139246
vt 0.46875 0.1725282
vt 0.46875 0.1586075
vt 0.46875 0.07747177
vt 0.46875 0.07196699
vt 0.46875 0.05
vt 0.46875 0.2
vt 0.46875 0.178033
vt 0.21875 0.1957107
vt 0.21875 0.125
vt 0.21875 0.178033
vt 0.21875 0.225
vt 0.21875 0.2
vt 0.21875 0.05428932
vt 0.21875 0.07196699
vt 0.21875 0.05
vt 0.21875 0.025
vt 0.21875 0.09642857
vt 0.09375 0.07747177
vt 0.09375 0.09139246
vt 0.09375 0.125
vt 0.09375 0.1586075
vt 0.09375 0.1725282

usemtl colormap

f 3/2/1 2/2/1 1/1/1
f 2/2/1 3/2/1 4/3/1
f 4/3/1 3/2/1 5/4/1
f 6/4/1 2/2/1 4/3/1
f 5/4/1 3/2/1 7/5/1
f 5/4/1 7/5/1 8/5/1
f 2/2/1 6/4/1 9/5/1
f 9/5/1 6/4/1 10/5/1
f 9/5/1 10/5/1 11/6/1
f 8/5/1 7/5/1 12/7/1
f 9/5/1 11/6/1 13/7/1
f 8/5/1 12/7/1 14/6/1
f 13/7/1 12/7/1 15/8/1
f 13/7/1 11/6/1 16/9/1
f 14/6/1 12/7/1 16/9/1
f 16/9/1 12/7/1 13/7/1
f 17/7/2 9/5/3 13/7/2
f 9/5/3 17/7/2 18/5/3
f 15/8/4 17/7/2 13/7/2
f 17/7/2 15/8/4 19/8/4
f 12/7/5 19/8/4 15/8/4
f 19/8/4 12/7/5 20/7/5
f 21/5/6 12/7/5 7/5/6
f 12/7/5 21/5/6 20/7/5
f 22/2/7 7/5/6 3/2/7
f 7/5/6 22/2/7 21/5/6
f 22/2/7 1/1/8 23/1/8
f 1/1/8 22/2/7 3/2/7
f 23/1/8 2/2/9 24/2/9
f 2/2/9 23/1/8 1/1/8
f 18/5/3 2/2/9 9/5/3
f 2/2/9 18/5/3 24/2/9
f 25/5/10 5/4/11 8/5/10
f 5/4/11 25/5/10 26/10/11
f 28/12/13 16/9/12 27/11/12
f 16/9/12 28/12/13 14/6/13
f 29/10/14 10/5/15 6/4/14
f 10/5/15 29/10/14 30/5/15
f 31/12/16 16/9/12 11/6/16
f 16/9/12 31/12/16 27/11/12
f 30/5/15 11/6/16 10/5/15
f 11/6/16 30/5/15 31/12/16
f 4/3/17 29/10/14 6/4/14
f 29/10/14 4/3/17 32/13/17
f 28/12/13 8/5/10 14/6/13
f 8/5/10 28/12/13 25/5/10
f 5/4/11 32/13/17 4/3/17
f 32/13/17 5/4/11 26/10/11
f 35/2/7 34/5/6 33/2/7
f 34/5/6 35/2/7 36/5/6
f 39/6/18 38/5/19 37/12/18
f 38/5/19 39/6/18 40/5/19
f 43/14/9 42/15/8 41/14/9
f 42/15/8 43/14/9 44/15/8
f 47/17/5 46/16/4 45/16/4
f 46/16/4 47/17/5 48/17/5
f 39/6/18 50/11/20 49/9/20
f 50/11/20 39/6/18 37/12/18
f 40/5/19 51/10/21 38/5/19
f 51/10/21 40/5/19 52/4/21
f 55/5/22 54/12/23 53/5/22
f 54/12/23 55/5/22 56/6/23
f 36/5/6 57/7/5 34/5/6
f 57/7/5 36/5/6 58/7/5
f 60/2/24 35/2/24 59/1/24
f 35/2/24 60/2/24 61/3/24
f 61/3/24 60/2/24 62/4/24
f 52/4/24 35/2/24 61/3/24
f 62/4/24 60/2/24 63/5/24
f 62/4/24 63/5/24 55/5/24
f 35/2/24 52/4/24 36/5/24
f 36/5/24 52/4/24 40/5/24
f 36/5/24 40/5/24 39/6/24
f 55/5/24 63/5/24 64/7/24
f 36/5/24 39/6/24 58/7/24
f 55/5/24 64/7/24 56/6/24
f 58/7/24 64/7/24 65/8/24
f 58/7/24 39/6/24 49/9/24
f 56/6/24 64/7/24 49/9/24
f 49/9/24 64/7/24 58/7/24
f 35/2/7 66/1/8 59/1/8
f 66/1/8 35/2/7 33/2/7
f 62/4/25 53/5/22 67/10/25
f 53/5/22 62/4/25 55/5/22
f 49/9/20 54/12/23 56/6/23
f 54/12/23 49/9/20 50/11/20
f 70/17/2 69/5/3 68/17/2
f 69/5/3 70/17/2 71/5/3
f 71/5/3 41/14/9 69/5/3
f 41/14/9 71/5/3 43/14/9
f 73/5/6 47/17/5 72/5/6
f 47/17/5 73/5/6 48/17/5
f 74/14/7 42/15/8 44/15/8
f 42/15/8 74/14/7 75/14/7
f 64/7/2 77/5/3 76/7/2
f 77/5/3 64/7/2 63/5/3
f 74/14/7 72/5/6 75/14/7
f 72/5/6 74/14/7 73/5/6
f 45/16/4 70/17/2 68/17/2
f 70/17/2 45/16/4 46/16/4
f 57/7/5 65/8/4 78/8/4
f 65/8/4 57/7/5 58/7/5
f 67/10/25 61/3/26 62/4/25
f 61/3/26 67/10/25 79/13/26
f 59/1/8 80/2/9 60/2/9
f 80/2/9 59/1/8 66/1/8
f 78/8/4 64/7/2 76/7/2
f 64/7/2 78/8/4 65/8/4
f 51/10/21 61/3/26 79/13/26
f 61/3/26 51/10/21 52/4/21
f 63/5/3 80/2/9 77/5/3
f 80/2/9 63/5/3 60/2/9
f 68/20/27 18/19/28 17/18/27
f 18/19/28 68/20/27 69/19/28
f 19/21/29 68/20/27 17/18/27
f 68/20/27 19/21/29 45/22/29
f 72/19/30 20/18/31 21/19/30
f 20/18/31 72/19/30 47/20/31
f 75/24/32 21/19/30 22/23/32
f 21/19/30 75/24/32 72/19/30
f 20/18/31 45/22/29 19/21/29
f 45/22/29 20/18/31 47/20/31
f 75/24/32 23/26/33 42/25/33
f 23/26/33 75/24/32 22/23/32
f 69/19/28 24/23/34 18/19/28
f 24/23/34 69/19/28 41/24/34
f 41/24/34 23/26/33 24/23/34
f 23/26/33 41/24/34 42/25/33
f 77/19/35 43/24/36 71/19/35
f 43/24/36 77/19/35 80/23/36
f 76/18/37 71/19/35 70/20/37
f 71/19/35 76/18/37 77/19/35
f 70/20/37 78/21/38 76/18/37
f 78/21/38 70/20/37 46/22/38
f 33/23/40 44/25/39 66/26/39
f 44/25/39 33/23/40 74/24/40
f 48/20/41 78/21/38 46/22/38
f 78/21/38 48/20/41 57/18/41
f 34/19/42 48/20/41 73/19/42
f 48/20/41 34/19/42 57/18/41
f 33/23/40 73/19/42 74/24/40
f 73/19/42 33/23/40 34/19/42
f 66/26/39 43/24/36 80/23/36
f 43/24/36 66/26/39 44/25/39
f 83/21/8 82/21/8 81/21/8
f 82/21/8 83/21/8 84/21/8
f 87/26/44 86/26/43 85/26/43
f 86/26/43 87/26/44 88/26/44
f 89/27/24 83/21/24 81/21/24
f 83/21/24 89/27/24 90/27/24
f 90/27/24 89/27/24 86/26/24
f 90/27/24 86/26/24 88/26/24
f 91/27/1 82/21/1 84/21/1
f 82/21/1 91/27/1 92/27/1
f 92/27/1 91/27/1 87/26/1
f 92/27/1 87/26/1 85/26/1
f 83/21/6 91/27/45 84/21/6
f 91/27/45 83/21/6 90/27/45
f 89/27/46 82/21/3 92/27/46
f 82/21/3 89/27/46 81/21/3
f 85/26/43 89/27/46 92/27/46
f 89/27/46 85/26/43 86/26/43
f 91/27/45 88/26/44 87/26/44
f 88/26/44 91/27/45 90/27/45
f 95/21/8 94/21/8 93/21/8
f 94/21/8 95/21/8 96/21/8
f 99/26/44 98/26/43 97/26/43
f 98/26/43 99/26/44 100/26/44
f 101/27/24 95/21/24 93/21/24
f 95/21/24 101/27/24 102/27/24
f 102/27/24 101/27/24 98/26/24
f 102/27/24 98/26/24 100/26/24
f 103/27/1 94/21/1 96/21/1
f 94/21/1 103/27/1 104/27/1
f 104/27/1 103/27/1 99/26/1
f 104/27/1 99/26/1 97/26/1
f 95/21/6 103/27/45 96/21/6
f 103/27/45 95/21/6 102/27/45
f 101/27/46 94/21/3 104/27/46
f 94/21/3 101/27/46 93/21/3
f 97/26/43 101/27/46 104/27/46
f 101/27/46 97/26/43 98/26/43
f 103/27/45 100/26/44 99/26/44
f 100/26/44 103/27/45 102/27/45
f 26/29/1 29/29/1 32/28/1
f 29/29/1 26/29/1 25/30/1
f 29/29/1 25/30/1 30/30/1
f 30/30/1 25/30/1 28/31/1
f 30/30/1 28/31/1 31/31/1
f 31/31/1 28/31/1 27/32/1
f 67/29/24 51/29/24 79/28/24
f 51/29/24 67/29/24 53/30/24
f 51/29/24 53/30/24 38/30/24
f 38/30/24 53/30/24 54/31/24
f 38/30/24 54/31/24 37/31/24
f 37/31/24 54/31/24 50/32/24

g scope-large-a




usemtl colormap

f 3/2/1 2/2/1 1/1/1
f 2/2/1 3/2/1 4/3/1
f 4/3/1 3/2/1 5/4/1
f 6/4/1 2/2/1 4/3/1
f 5/4/1 3/2/1 7/5/1
f 5/4/1 7/5/1 8/5/1
f 2/2/1 6/4/1 9/5/1
f 9/5/1 6/4/1 10/5/1
f 9/5/1 10/5/1 11/6/1
f 8/5/1 7/5/1 12/7/1
f 9/5/1 11/6/1 13/7/1
f 8/5/1 12/7/1 14/6/1
f 13/7/1 12/7/1 15/8/1
f 13/7/1 11/6/1 16/9/1
f 14/6/1 12/7/1 16/9/1
f 16/9/1 12/7/1 13/7/1
f 17/7/2 9/5/3 13/7/2
f 9/5/3 17/7/2 18/5/3
f 15/8/4 17/7/2 13/7/2
f 17/7/2 15/8/4 19/8/4
f 12/7/5 19/8/4 15/8/4
f 19/8/4 12/7/5 20/7/5
f 21/5/6 12/7/5 7/5/6
f 12/7/5 21/5/6 20/7/5
f 22/2/7 7/5/6 3/2/7
f 7/5/6 22/2/7 21/5/6
f 22/2/7 1/1/8 23/1/8
f 1/1/8 22/2/7 3/2/7
f 23/1/8 2/2/9 24/2/9
f 2/2/9 23/1/8 1/1/8
f 18/5/3 2/2/9 9/5/3
f 2/2/9 18/5/3 24/2/9
f 25/5/10 5/4/11 8/5/10
f 5/4/11 25/5/10 26/10/11
f 28/12/13 16/9/12 27/11/12
f 16/9/12 28/12/13 14/6/13
f 29/10/14 10/5/15 6/4/14
f 10/5/15 29/10/14 30/5/15
f 31/12/16 16/9/12 11/6/16
f 16/9/12 31/12/16 27/11/12
f 30/5/15 11/6/16 10/5/15
f 11/6/16 30/5/15 31/12/16
f 4/3/17 29/10/14 6/4/14
f 29/10/14 4/3/17 32/13/17
f 28/12/13 8/5/10 14/6/13
f 8/5/10 28/12/13 25/5/10
f 5/4/11 32/13/17 4/3/17
f 32/13/17 5/4/11 26/10/11
f 35/2/7 34/5/6 33/2/7
f 34/5/6 35/2/7 36/5/6
f 39/6/18 38/5/19 37/12/18
f 38/5/19 39/6/18 40/5/19
f 43/14/9 42/15/8 41/14/9
f 42/15/8 43/14/9 44/15/8
f 47/17/5 46/16/4 45/16/4
f 46/16/4 47/17/5 48/17/5
f 39/6/18 50/11/20 49/9/20
f 50/11/20 39/6/18 37/12/18
f 40/5/19 51/10/21 38/5/19
f 51/10/21 40/5/19 52/4/21
f 55/5/22 54/12/23 53/5/22
f 54/12/23 55/5/22 56/6/23
f 36/5/6 57/7/5 34/5/6
f 57/7/5 36/5/6 58/7/5
f 60/2/24 35/2/24 59/1/24
f 35/2/24 60/2/24 61/3/24
f 61/3/24 60/2/24 62/4/24
f 52/4/24 35/2/24 61/3/24
f 62/4/24 60/2/24 63/5/24
f 62/4/24 63/5/24 55/5/24
f 35/2/24 52/4/24 36/5/24
f 36/5/24 52/4/24 40/5/24
f 36/5/24 40/5/24 39/6/24
f 55/5/24 63/5/24 64/7/24
f 36/5/24 39/6/24 58/7/24
f 55/5/24 64/7/24 56/6/24
f 58/7/24 64/7/24 65/8/24
f 58/7/24 39/6/24 49/9/24
f 56/6/24 64/7/24 49/9/24
f 49/9/24 64/7/24 58/7/24
f 35/2/7 66/1/8 59/1/8
f 66/1/8 35/2/7 33/2/7
f 62/4/25 53/5/22 67/10/25
f 53/5/22 62/4/25 55/5/22
f 49/9/20 54/12/23 56/6/23
f 54/12/23 49/9/20 50/11/20
f 70/17/2 69/5/3 68/17/2
f 69/5/3 70/17/2 71/5/3
f 71/5/3 41/14/9 69/5/3
f 41/14/9 71/5/3 43/14/9
f 73/5/6 47/17/5 72/5/6
f 47/17/5 73/5/6 48/17/5
f 74/14/7 42/15/8 44/15/8
f 42/15/8 74/14/7 75/14/7
f 64/7/2 77/5/3 76/7/2
f 77/5/3 64/7/2 63/5/3
f 74/14/7 72/5/6 75/14/7
f 72/5/6 74/14/7 73/5/6
f 45/16/4 70/17/2 68/17/2
f 70/17/2 45/16/4 46/16/4
f 57/7/5 65/8/4 78/8/4
f 65/8/4 57/7/5 58/7/5
f 67/10/25 61/3/26 62/4/25
f 61/3/26 67/10/25 79/13/26
f 59/1/8 80/2/9 60/2/9
f 80/2/9 59/1/8 66/1/8
f 78/8/4 64/7/2 76/7/2
f 64/7/2 78/8/4 65/8/4
f 51/10/21 61/3/26 79/13/26
f 61/3/26 51/10/21 52/4/21
f 63/5/3 80/2/9 77/5/3
f 80/2/9 63/5/3 60/2/9
f 68/20/27 18/19/28 17/18/27
f 18/19/28 68/20/27 69/19/28
f 19/21/29 68/20/27 17/18/27
f 68/20/27 19/21/29 45/22/29
f 72/19/30 20/18/31 21/19/30
f 20/18/31 72/19/30 47/20/31
f 75/24/32 21/19/30 22/23/32
f 21/19/30 75/24/32 72/19/30
f 20/18/31 45/22/29 19/21/29
f 45/22/29 20/18/31 47/20/31
f 75/24/32 23/26/33 42/25/33
f 23/26/33 75/24/32 22/23/32
f 69/19/28 24/23/34 18/19/28
f 24/23/34 69/19/28 41/24/34
f 41/24/34 23/26/33 24/23/34
f 23/26/33 41/24/34 42/25/33
f 77/19/35 43/24/36 71/19/35
f 43/24/36 77/19/35 80/23/36
f 76/18/37 71/19/35 70/20/37
f 71/19/35 76/18/37 77/19/35
f 70/20/37 78/21/38 76/18/37
f 78/21/38 70/20/37 46/22/38
f 33/23/40 44/25/39 66/26/39
f 44/25/39 33/23/40 74/24/40
f 48/20/41 78/21/38 46/22/38
f 78/21/38 48/20/41 57/18/41
f 34/19/42 48/20/41 73/19/42
f 48/20/41 34/19/42 57/18/41
f 33/23/40 73/19/42 74/24/40
f 73/19/42 33/23/40 34/19/42
f 66/26/39 43/24/36 80/23/36
f 43/24/36 66/26/39 44/25/39
f 83/21/8 82/21/8 81/21/8
f 82/21/8 83/21/8 84/21/8
f 87/26/44 86/26/43 85/26/43
f 86/26/43 87/26/44 88/26/44
f 89/27/24 83/21/24 81/21/24
f 83/21/24 89/27/24 90/27/24
f 90/27/24 89/27/24 86/26/24
f 90/27/24 86/26/24 88/26/24
f 91/27/1 82/21/1 84/21/1
f 82/21/1 91/27/1 92/27/1
f 92/27/1 91/27/1 87/26/1
f 92/27/1 87/26/1 85/26/1
f 83/21/6 91/27/45 84/21/6
f 91/27/45 83/21/6 90/27/45
f 89/27/46 82/21/3 92/27/46
f 82/21/3 89/27/46 81/21/3
f 85/26/43 89/27/46 92/27/46
f 89/27/46 85/26/43 86/26/43
f 91/27/45 88/26/44 87/26/44
f 88/26/44 91/27/45 90/27/45
f 95/21/8 94/21/8 93/21/8
f 94/21/8 95/21/8 96/21/8
f 99/26/44 98/26/43 97/26/43
f 98/26/43 99/26/44 100/26/44
f 101/27/24 95/21/24 93/21/24
f 95/21/24 101/27/24 102/27/24
f 102/27/24 101/27/24 98/26/24
f 102/27/24 98/26/24 100/26/24
f 103/27/1 94/21/1 96/21/1
f 94/21/1 103/27/1 104/27/1
f 104/27/1 103/27/1 99/26/1
f 104/27/1 99/26/1 97/26/1
f 95/21/6 103/27/45 96/21/6
f 103/27/45 95/21/6 102/27/45
f 101/27/46 94/21/3 104/27/46
f 94/21/3 101/27/46 93/21/3
f 97/26/43 101/27/46 104/27/46
f 101/27/46 97/26/43 98/26/43
f 103/27/45 100/26/44 99/26/44
f 100/26/44 103/27/45 102/27/45
f 26/29/1 29/29/1 32/28/1
f 29/29/1 26/29/1 25/30/1
f 29/29/1 25/30/1 30/30/1
f 30/30/1 25/30/1 28/31/1
f 30/30/1 28/31/1 31/31/1
f 31/31/1 28/31/1 27/32/1
f 67/29/24 51/29/24 79/28/24
f 51/29/24 67/29/24 53/30/24
f 51/29/24 53/30/24 38/30/24
f 38/30/24 53/30/24 54/31/24
f 38/30/24 54/31/24 37/31/24
f 37/31/24 54/31/24 50/32/24

