# Created by Kenney (www.kenney.nl)

mtllib target-large.mtl

g target-large

v 0.05 -0.1202082 -0.1202082 1 1 1
v 0 -0.1202082 -0.1202082 1 1 1
v 0.05 -0.17 0 1 1 1
v -3.72529E-09 -0.17 0 1 1 1
v 0.05 -0.1202082 0.1202082 1 1 1
v -3.72529E-09 -0.1202082 0.1202082 1 1 1
v 0.05 0 0.17 1 1 1
v -3.72529E-09 0 0.17 1 1 1
v 0.05 0.1202082 0.1202082 1 1 1
v 0 0.1202082 0.1202082 1 1 1
v 0.05 0 -0.17 1 1 1
v 1.862645E-09 0 -0.17 1 1 1
v 0.05 0.1202082 -0.1202082 1 1 1
v 1.862645E-09 0.1202082 -0.1202082 1 1 1
v 0.05 0.17 0 1 1 1
v 1.862645E-09 0.17 0 1 1 1
v -0.05 0 -0.17 1 1 1
v -0.05 0.1202082 -0.1202082 1 1 1
v -0.05 -0.1202082 -0.1202082 1 1 1
v -0.05 0 -0.1158804 1 1 1
v -0.05 -0.08193982 -0.08193982 1 1 1
v -0.05 0.0819398 -0.08193982 1 1 1
v -0.05 -0.17 0 1 1 1
v -0.05 -0.1158804 0 1 1 1
v -0.05 0.17 0 1 1 1
v -0.05 0.1158804 0 1 1 1
v -0.05 0.0819398 0.0819398 1 1 1
v -0.05 -0.1202082 0.1202082 1 1 1
v -0.05 0.1202082 0.1202082 1 1 1
v -0.05 -0.08193982 0.0819398 1 1 1
v -0.05 0 0.17 1 1 1
v -0.05 0 0.1158804 1 1 1
v 1.909584E-14 -0.1202082 -0.1202082 1 1 1
v 2.533212E-09 0 -0.17 1 1 1
v 3.582484E-09 0.1202082 -0.1202082 1 1 1
v -3.582483E-09 -0.1202082 0.1202082 1 1 1
v -2.533211E-09 0 0.17 1 1 1
v 2.533186E-09 0.17 0 1 1 1
v -1.754152E-14 0.1202082 0.1202082 1 1 1
v -2.533184E-09 -0.17 0 1 1 1
v -0.05 0 -0.06176079 1 1 1
v -0.05 0.04367147 -0.04367147 1 1 1
v -0.05 -0.04367147 -0.04367147 1 1 1
v -0.05 -0.06176078 0 1 1 1
v -0.05 0 -0.01910293 1 1 1
v -0.05 0.06176078 0 1 1 1
v -0.05 -0.01910293 0 1 1 1
v -0.05 0.01910293 0 1 1 1
v -0.05 0 0.01910292 1 1 1
v -0.05 -0.04367147 0.04367147 1 1 1
v -0.05 0.04367147 0.04367147 1 1 1
v -0.05 0 0.06176078 1 1 1
v -0.05 0 -0.1158804 1 1 1
v -0.05 0.08193981 -0.08193981 1 1 1
v -0.05 -0.08193982 -0.08193981 1 1 1
v -0.05 0 -0.06176078 1 1 1
v -0.05 -0.04367147 -0.04367147 1 1 1
v -0.05 0.04367145 -0.04367147 1 1 1
v -0.05 -0.1158804 -7.45062E-10 1 1 1
v -0.05 -0.06176079 -7.45062E-10 1 1 1
v -0.05 0.1158804 -7.45062E-10 1 1 1
v -0.05 0.06176078 -7.45062E-10 1 1 1
v -0.05 0.04367145 0.04367147 1 1 1
v -0.05 -0.08193982 0.08193981 1 1 1
v -0.05 0.08193981 0.08193981 1 1 1
v -0.05 -0.04367147 0.04367147 1 1 1
v -0.05 0 0.1158804 1 1 1
v -0.05 0 0.06176078 1 1 1
v -0.05 0 -0.01910293 1 1 1
v -0.05 0.01910292 -7.450624E-10 1 1 1
v -0.05 -0.01910293 -7.450624E-10 1 1 1
v -0.05 0 0.01910293 1 1 1

vn 0 -0.7071068 -0.7071068
vn 0 -1 0
vn 0 -0.7071068 0.7071068
vn 0 0 1
vn 0 0.7071068 0.7071068
vn 0 0 -1
vn 0 0.7071068 -0.7071068
vn 0 1 0
vn 1 0 0
vn -1 0 0

vt 0.21875 0.05428932
vt 0.21875 0.025
vt 0.21875 0.125
vt 0.21875 0.1957107
vt 0.21875 0.225
vt 0.59375 0.375
vt 0.59375 0.4457107
vt 0.59375 0.3042893
vt 0.59375 0.3268001
vt 0.59375 0.4231999
vt 0.59375 0.275
vt 0.59375 0.3068351
vt 0.59375 0.475
vt 0.59375 0.4431649
vt 0.59375 0.4006891
vt 0.59375 0.3493109
vt 0.59375 0.3386701
vt 0.59375 0.4113299
vt 0.59375 0.363763
vt 0.59375 0.386237
vt 0.59375 0.125
vt 0.59375 0.1957107
vt 0.59375 0.05428932
vt 0.59375 0.08731332
vt 0.59375 0.1626867
vt 0.59375 0.025
vt 0.59375 0.07170299
vt 0.59375 0.225
vt 0.59375 0.178297
vt 0.59375 0.141485
vt 0.59375 0.108515

usemtl colormap

f 3/2/2 2/1/1 1/1/1
f 2/1/1 3/2/2 4/2/2
f 5/1/3 4/2/2 3/2/2
f 4/2/2 5/1/3 6/1/3
f 9/4/5 8/3/4 7/3/4
f 8/3/4 9/4/5 10/4/5
f 7/3/4 6/1/3 5/1/3
f 6/1/3 7/3/4 8/3/4
f 2/1/1 11/3/6 1/1/1
f 11/3/6 2/1/1 12/3/6
f 12/3/6 13/4/7 11/3/6
f 13/4/7 12/3/6 14/4/7
f 16/5/8 9/4/5 15/5/8
f 9/4/5 16/5/8 10/4/5
f 14/4/7 15/5/8 13/4/7
f 15/5/8 14/4/7 16/5/8
f 13/4/9 1/1/9 11/3/9
f 1/1/9 13/4/9 15/5/9
f 1/1/9 15/5/9 3/2/9
f 3/2/9 15/5/9 9/4/9
f 3/2/9 9/4/9 5/1/9
f 5/1/9 9/4/9 7/3/9
f 19/8/10 18/7/10 17/6/10
f 18/7/10 19/8/10 20/6/10
f 20/6/10 19/8/10 21/9/10
f 22/10/10 18/7/10 20/6/10
f 21/9/10 19/8/10 23/11/10
f 21/9/10 23/11/10 24/12/10
f 18/7/10 22/10/10 25/13/10
f 25/13/10 22/10/10 26/14/10
f 25/13/10 26/14/10 27/10/10
f 24/12/10 23/11/10 28/8/10
f 25/13/10 27/10/10 29/7/10
f 24/12/10 28/8/10 30/9/10
f 29/7/10 28/8/10 31/6/10
f 29/7/10 27/10/10 32/6/10
f 30/9/10 28/8/10 32/6/10
f 32/6/10 28/8/10 29/7/10
f 19/8/1 34/6/6 33/8/1
f 34/6/6 19/8/1 17/6/6
f 17/6/6 35/7/7 34/6/6
f 35/7/7 17/6/6 18/7/7
f 37/6/4 28/8/3 36/8/3
f 28/8/3 37/6/4 31/6/4
f 18/7/7 38/13/8 35/7/7
f 38/13/8 18/7/7 25/13/8
f 25/13/8 39/7/5 38/13/8
f 39/7/5 25/13/8 29/7/5
f 39/7/5 31/6/4 37/6/4
f 31/6/4 39/7/5 29/7/5
f 36/8/3 23/11/2 40/11/2
f 23/11/2 36/8/3 28/8/3
f 40/11/2 19/8/1 33/8/1
f 19/8/1 40/11/2 23/11/2
f 43/16/10 42/15/10 41/6/10
f 42/15/10 43/16/10 44/17/10
f 42/15/10 44/17/10 45/6/10
f 45/6/10 46/18/10 42/15/10
f 45/6/10 44/17/10 47/19/10
f 46/18/10 45/6/10 48/20/10
f 47/19/10 44/17/10 49/6/10
f 46/18/10 48/20/10 49/6/10
f 49/6/10 44/17/10 50/16/10
f 46/18/10 49/6/10 51/15/10
f 49/6/10 50/16/10 51/15/10
f 51/15/10 50/16/10 52/6/10
f 55/23/10 54/22/10 53/21/10
f 54/22/10 55/23/10 56/21/10
f 56/21/10 55/23/10 57/24/10
f 58/25/10 54/22/10 56/21/10
f 57/24/10 55/23/10 59/26/10
f 57/24/10 59/26/10 60/27/10
f 54/22/10 58/25/10 61/28/10
f 61/28/10 58/25/10 62/29/10
f 61/28/10 62/29/10 63/25/10
f 60/27/10 59/26/10 64/23/10
f 61/28/10 63/25/10 65/22/10
f 60/27/10 64/23/10 66/24/10
f 65/22/10 64/23/10 67/21/10
f 65/22/10 63/25/10 68/21/10
f 66/24/10 64/23/10 68/21/10
f 68/21/10 64/23/10 65/22/10
f 71/31/10 70/30/10 69/21/10
f 70/30/10 71/31/10 72/21/10

g target-large




usemtl colormap

f 3/2/2 2/1/1 1/1/1
f 2/1/1 3/2/2 4/2/2
f 5/1/3 4/2/2 3/2/2
f 4/2/2 5/1/3 6/1/3
f 9/4/5 8/3/4 7/3/4
f 8/3/4 9/4/5 10/4/5
f 7/3/4 6/1/3 5/1/3
f 6/1/3 7/3/4 8/3/4
f 2/1/1 11/3/6 1/1/1
f 11/3/6 2/1/1 12/3/6
f 12/3/6 13/4/7 11/3/6
f 13/4/7 12/3/6 14/4/7
f 16/5/8 9/4/5 15/5/8
f 9/4/5 16/5/8 10/4/5
f 14/4/7 15/5/8 13/4/7
f 15/5/8 14/4/7 16/5/8
f 13/4/9 1/1/9 11/3/9
f 1/1/9 13/4/9 15/5/9
f 1/1/9 15/5/9 3/2/9
f 3/2/9 15/5/9 9/4/9
f 3/2/9 9/4/9 5/1/9
f 5/1/9 9/4/9 7/3/9
f 19/8/10 18/7/10 17/6/10
f 18/7/10 19/8/10 20/6/10
f 20/6/10 19/8/10 21/9/10
f 22/10/10 18/7/10 20/6/10
f 21/9/10 19/8/10 23/11/10
f 21/9/10 23/11/10 24/12/10
f 18/7/10 22/10/10 25/13/10
f 25/13/10 22/10/10 26/14/10
f 25/13/10 26/14/10 27/10/10
f 24/12/10 23/11/10 28/8/10
f 25/13/10 27/10/10 29/7/10
f 24/12/10 28/8/10 30/9/10
f 29/7/10 28/8/10 31/6/10
f 29/7/10 27/10/10 32/6/10
f 30/9/10 28/8/10 32/6/10
f 32/6/10 28/8/10 29/7/10
f 19/8/1 34/6/6 33/8/1
f 34/6/6 19/8/1 17/6/6
f 17/6/6 35/7/7 34/6/6
f 35/7/7 17/6/6 18/7/7
f 37/6/4 28/8/3 36/8/3
f 28/8/3 37/6/4 31/6/4
f 18/7/7 38/13/8 35/7/7
f 38/13/8 18/7/7 25/13/8
f 25/13/8 39/7/5 38/13/8
f 39/7/5 25/13/8 29/7/5
f 39/7/5 31/6/4 37/6/4
f 31/6/4 39/7/5 29/7/5
f 36/8/3 23/11/2 40/11/2
f 23/11/2 36/8/3 28/8/3
f 40/11/2 19/8/1 33/8/1
f 19/8/1 40/11/2 23/11/2
f 43/16/10 42/15/10 41/6/10
f 42/15/10 43/16/10 44/17/10
f 42/15/10 44/17/10 45/6/10
f 45/6/10 46/18/10 42/15/10
f 45/6/10 44/17/10 47/19/10
f 46/18/10 45/6/10 48/20/10
f 47/19/10 44/17/10 49/6/10
f 46/18/10 48/20/10 49/6/10
f 49/6/10 44/17/10 50/16/10
f 46/18/10 49/6/10 51/15/10
f 49/6/10 50/16/10 51/15/10
f 51/15/10 50/16/10 52/6/10
f 55/23/10 54/22/10 53/21/10
f 54/22/10 55/23/10 56/21/10
f 56/21/10 55/23/10 57/24/10
f 58/25/10 54/22/10 56/21/10
f 57/24/10 55/23/10 59/26/10
f 57/24/10 59/26/10 60/27/10
f 54/22/10 58/25/10 61/28/10
f 61/28/10 58/25/10 62/29/10
f 61/28/10 62/29/10 63/25/10
f 60/27/10 59/26/10 64/23/10
f 61/28/10 63/25/10 65/22/10
f 60/27/10 64/23/10 66/24/10
f 65/22/10 64/23/10 67/21/10
f 65/22/10 63/25/10 68/21/10
f 66/24/10 64/23/10 68/21/10
f 68/21/10 64/23/10 65/22/10
f 71/31/10 70/30/10 69/21/10
f 70/30/10 71/31/10 72/21/10

