# Created by Kenney (www.kenney.nl)

mtllib target-fragment-large.mtl

g target-fragment-large

v 0.025 0.06010408 -0.06010408 1 1 1
v 0.025 0.0139101 -0.0409699 1 1 1
v 0.025 0.085 3.725311E-10 1 1 1
v 0.025 -0.03228388 -0.02183573 1 1 1
v 0.025 -0.085 3.725311E-10 1 1 1
v 0.025 -0.03228388 0.02183573 1 1 1
v 0.025 0.06010408 0.06010408 1 1 1
v 0.025 0.0139101 0.0409699 1 1 1
v -0.025 0.0139101 -0.0409699 1 1 1
v -0.025 0.03088039 -3.725311E-10 1 1 1
v -0.025 -0.03228388 -0.02183573 1 1 1
v -0.025 -0.02323922 -3.725309E-10 1 1 1
v -0.025 0.0139101 0.0409699 1 1 1
v -0.025 -0.03228388 0.02183573 1 1 1
v -0.025 -0.02323922 -3.725309E-10 1 1 1
v -0.025 -0.085 -3.72531E-10 1 1 1
v -0.025 0.06010408 -0.06010408 1 1 1
v -0.025 0.085 -3.725311E-10 1 1 1
v -0.025 0.0139101 -0.0409699 1 1 1
v -0.025 0.0139101 0.0409699 1 1 1
v -0.025 0.06010408 0.06010408 1 1 1
v 0.025 0.0139101 -0.0409699 1 1 1
v 0.025 0.06010408 -0.06010408 1 1 1
v 0.025 0.06010408 0.06010408 1 1 1
v 0.025 0.0139101 0.0409699 1 1 1

vn 1 0 0
vn -1 0 0
vn 0 -0.3826834 -0.9238795
vn 0 -0.3826834 0.9238795
vn 0 1 0
vn 0 0.9238795 0.3826834
vn 0 0.9238795 -0.3826834

vt 0.21875 0.1664214
vt 0.21875 0.05772964
vt 0.21875 0.225
vt 0.21875 0.025
vt 0.59375 0.05772965
vt 0.59375 0.09765974
vt 0.59375 0.025
vt 0.59375 0.05772964
vt 0.59375 0.337019
vt 0.59375 0.3476597
vt 0.59375 0.275
vt 0.59375 0.4457107
vt 0.59375 0.475
vt 0.59375 0.3913648
vt 0.59375 0.4113299

usemtl colormap

f 3/3/1 2/2/1 1/1/1
f 2/2/1 3/3/1 4/4/1
f 4/4/1 3/3/1 5/4/1
f 5/4/1 3/3/1 6/4/1
f 6/4/1 3/3/1 7/1/1
f 6/4/1 7/1/1 8/2/1
f 11/7/2 10/6/2 9/5/2
f 10/6/2 11/7/2 12/7/2
f 10/6/2 12/7/2 13/5/2
f 13/5/2 12/7/2 14/7/2
f 11/7/3 2/8/3 4/7/3
f 2/8/3 11/7/3 9/5/3
f 8/8/4 14/7/4 6/7/4
f 14/7/4 8/8/4 13/5/4
f 16/11/2 15/10/2 11/9/2
f 15/10/2 16/11/2 14/9/2
f 6/9/4 16/11/4 5/11/4
f 16/11/4 6/9/4 14/9/4
f 16/11/3 4/9/3 5/11/3
f 4/9/3 16/11/3 11/9/3
f 19/14/2 18/13/2 17/12/2
f 18/13/2 19/14/2 10/15/2
f 18/13/2 10/15/2 20/14/2
f 18/13/2 20/14/2 21/12/2
f 19/14/3 23/12/3 22/14/3
f 23/12/3 19/14/3 17/12/3
f 18/13/5 24/12/6 3/13/5
f 24/12/6 18/13/5 21/12/6
f 17/12/7 3/13/5 23/12/7
f 3/13/5 17/12/7 18/13/5
f 24/12/4 20/14/4 25/14/4
f 20/14/4 24/12/4 21/12/4

g target-fragment-large




usemtl colormap

f 3/3/1 2/2/1 1/1/1
f 2/2/1 3/3/1 4/4/1
f 4/4/1 3/3/1 5/4/1
f 5/4/1 3/3/1 6/4/1
f 6/4/1 3/3/1 7/1/1
f 6/4/1 7/1/1 8/2/1
f 11/7/2 10/6/2 9/5/2
f 10/6/2 11/7/2 12/7/2
f 10/6/2 12/7/2 13/5/2
f 13/5/2 12/7/2 14/7/2
f 11/7/3 2/8/3 4/7/3
f 2/8/3 11/7/3 9/5/3
f 8/8/4 14/7/4 6/7/4
f 14/7/4 8/8/4 13/5/4
f 16/11/2 15/10/2 11/9/2
f 15/10/2 16/11/2 14/9/2
f 6/9/4 16/11/4 5/11/4
f 16/11/4 6/9/4 14/9/4
f 16/11/3 4/9/3 5/11/3
f 4/9/3 16/11/3 11/9/3
f 19/14/2 18/13/2 17/12/2
f 18/13/2 19/14/2 10/15/2
f 18/13/2 10/15/2 20/14/2
f 18/13/2 20/14/2 21/12/2
f 19/14/3 23/12/3 22/14/3
f 23/12/3 19/14/3 17/12/3
f 18/13/5 24/12/6 3/13/5
f 24/12/6 18/13/5 21/12/6
f 17/12/7 3/13/5 23/12/7
f 3/13/5 17/12/7 18/13/5
f 24/12/4 20/14/4 25/14/4
f 20/14/4 24/12/4 21/12/4

