# Created by Kenney (www.kenney.nl)

mtllib target-detail.mtl

g target-detail

v -0.11 0.18 0.0641196 1 1 1
v -0.11 0.09806018 0.09806018 1 1 1
v -0.11 0.2619398 0.09806018 1 1 1
v -0.11 0.18 0.1182392 1 1 1
v -0.11 0.2236715 0.1363285 1 1 1
v -0.11 0.1363285 0.1363285 1 1 1
v -0.11 0.2958804 0.18 1 1 1
v -0.11 0.2417608 0.18 1 1 1
v -0.11 0.06411959 0.18 1 1 1
v -0.11 0.1182392 0.18 1 1 1
v -0.11 0.1363285 0.2236715 1 1 1
v -0.11 0.2619398 0.2619398 1 1 1
v -0.11 0.09806018 0.2619398 1 1 1
v -0.11 0.2236715 0.2236715 1 1 1
v -0.11 0.18 0.2958804 1 1 1
v -0.11 0.18 0.2417608 1 1 1
v -0.11 0.18 0.1608971 1 1 1
v -0.11 0.1608971 0.18 1 1 1
v -0.11 0.1991029 0.18 1 1 1
v -0.11 0.18 0.1991029 1 1 1
v -0.11 0.18 0.01 1 1 1
v -0.11 0.05979183 0.05979185 1 1 1
v -0.11 0.3002082 0.05979185 1 1 1
v -0.11 0.18 0.06411961 1 1 1
v -0.11 0.2619398 0.09806018 1 1 1
v -0.11 0.09806019 0.09806018 1 1 1
v -0.11 0.35 0.18 1 1 1
v -0.11 0.2958804 0.18 1 1 1
v -0.11 0.00999999 0.18 1 1 1
v -0.11 0.06411961 0.18 1 1 1
v -0.11 0.09806019 0.2619398 1 1 1
v -0.11 0.3002082 0.3002082 1 1 1
v -0.11 0.05979183 0.3002082 1 1 1
v -0.11 0.2619398 0.2619398 1 1 1
v -0.11 0.18 0.35 1 1 1
v -0.11 0.18 0.2958804 1 1 1
v -0.11 0.18 0.1182392 1 1 1
v -0.11 0.1363285 0.1363285 1 1 1
v -0.11 0.2236715 0.1363285 1 1 1
v -0.11 0.2417608 0.18 1 1 1
v -0.11 0.18 0.1608971 1 1 1
v -0.11 0.1182392 0.18 1 1 1
v -0.11 0.1991029 0.18 1 1 1
v -0.11 0.1608971 0.18 1 1 1
v -0.11 0.18 0.1991029 1 1 1
v -0.11 0.2236715 0.2236715 1 1 1
v -0.11 0.1363285 0.2236715 1 1 1
v -0.11 0.18 0.2417608 1 1 1
v -0.06000001 0.3002082 0.05979185 1 1 1
v -0.06 0.18 0.01 1 1 1
v -0.06 0.05979183 0.05979185 1 1 1
v -0.06000001 0.3002082 0.3002082 1 1 1
v -0.06000001 0.18 0.35 1 1 1
v -0.06 0.00999999 0.18 1 1 1
v -0.06000001 0.05979183 0.3002082 1 1 1
v -0.06000001 0.35 0.18 1 1 1
v -0.13 0.165 0.3029402 1 1 1
v -0.13 0.195 0.3029402 1 1 1
v -0.13 0.15 0.33 1 1 1
v -0.13 0.21 0.33 1 1 1
v -0.13 0.15 0.36 1 1 1
v -0.13 0.21 0.36 1 1 1
v 0 0.15 0.36 1 1 1
v 0 0.15 0.33 1 1 1
v 0 0.21 0.36 1 1 1
v 0 0.21 0.33 1 1 1
v 0 0.165 0.3029402 1 1 1
v 0 0.195 0.3029402 1 1 1
v 0 0.03 0.15 1 1 1
v 0 1.937142E-09 0.15 1 1 1
v 0 0.0570598 0.165 1 1 1
v 0 1.937142E-09 0.21 1 1 1
v 0 0.0570598 0.195 1 1 1
v 0 0.03 0.21 1 1 1
v -0.13 0.03 0.21 1 1 1
v -0.13 0.0570598 0.195 1 1 1
v -0.13 0 0.15 1 1 1
v -0.13 0.03 0.15 1 1 1
v -0.13 0 0.21 1 1 1
v -0.13 0.0570598 0.165 1 1 1
v 0 0.21 3.72529E-09 1 1 1
v 0 0.21 0.03 1 1 1
v -0.13 0.21 3.72529E-09 1 1 1
v -0.13 0.21 0.03 1 1 1
v 0 0.15 3.72529E-09 1 1 1
v -0.13 0.15 0 1 1 1
v 0 0.195 0.05705981 1 1 1
v -0.13 0.195 0.05705981 1 1 1
v 0 0.15 0.03 1 1 1
v -0.13 0.15 0.03 1 1 1
v 0 0.165 0.05705981 1 1 1
v -0.13 0.165 0.05705981 1 1 1
v 0 0.3029402 0.195 1 1 1
v 0 0.3029402 0.165 1 1 1
v -0.13 0.3029402 0.195 1 1 1
v -0.13 0.3029402 0.165 1 1 1
v -0.13 0.33 0.15 1 1 1
v -0.13 0.36 0.15 1 1 1
v -0.13 0.36 0.21 1 1 1
v -0.13 0.33 0.21 1 1 1
v 0 0.33 0.15 1 1 1
v 0 0.36 0.15 1 1 1
v 0 0.36 0.21 1 1 1
v 0 0.33 0.21 1 1 1
v -0.01000001 0.3002082 0.05979185 1 1 1
v -0.06 0.3002082 0.05979185 1 1 1
v -0.01000001 0.35 0.18 1 1 1
v -0.01000001 0.3002082 0.3002082 1 1 1
v -0.01000001 0.18 0.35 1 1 1
v -0.01000001 0.05979183 0.3002082 1 1 1
v -0.06 0.05979183 0.3002082 1 1 1
v -0.01 0.18 0.01 1 1 1
v -0.06 0.18 0.01 1 1 1
v -0.01 0.05979183 0.05979185 1 1 1
v -0.06 0.05979183 0.05979185 1 1 1
v -0.01 0.00999999 0.18 1 1 1

vn -1 0 0
vn 0 0.7071068 -0.7071068
vn 0 0 -1
vn 0 -0.7071068 -0.7071068
vn 0 0.7071068 0.7071068
vn 0 0 1
vn 0 -1 0
vn 0 -0.7071068 0.7071068
vn 0 1 0
vn 0 -0.9681458 -0.2503869
vn 0 0.9681458 -0.2503869
vn 0 -0.5075322 -0.8616328
vn 0 0.5075323 -0.8616328
vn 1 0 0
vn 0 0.2503869 0.9681458
vn 0 0.8616328 0.5075323
vn 0 0.8616328 -0.5075323
vn 0 0.2503869 -0.9681458
vn 0 0.9681458 0.2503869
vn 0 0.5075322 0.8616328
vn 0 -0.9681458 0.2503869
vn 0 -0.5075323 0.8616328
vn 0 -0.8616328 0.5075323
vn 0 -0.8616328 -0.5075323
vn 0 -0.2503869 -0.9681458
vn 0 -0.2503869 0.9681458

vt 0.59375 0.125
vt 0.59375 0.1957107
vt 0.59375 0.05428932
vt 0.59375 0.08731332
vt 0.59375 0.1626867
vt 0.59375 0.025
vt 0.59375 0.07170299
vt 0.59375 0.225
vt 0.59375 0.178297
vt 0.59375 0.141485
vt 0.59375 0.108515
vt 0.59375 0.375
vt 0.59375 0.4457107
vt 0.59375 0.3042893
vt 0.59375 0.3268001
vt 0.59375 0.4231999
vt 0.59375 0.275
vt 0.59375 0.3068351
vt 0.59375 0.475
vt 0.59375 0.4431649
vt 0.59375 0.4006891
vt 0.59375 0.3493109
vt 0.59375 0.3386701
vt 0.59375 0.4113299
vt 0.59375 0.363763
vt 0.59375 0.386237
vt 0.46875 0.05428932
vt 0.46875 0.125
vt 0.46875 0.1957107
vt 0.46875 0.225
vt 0.46875 0.025
vt 0.46875 0.1
vt 0.46875 0.15
vt 0.46875 0.075
vt 0.46875 0.175
vt 0.46875 0.1275764
vt 0.46875 0.075
vt 0.46875 0.09999999
vt 0.46875 0.1224236
vt 0.46875 0.1224236
vt 0.21875 0.05428932
vt 0.21875 0.025
vt 0.21875 0.125
vt 0.21875 0.1957107
vt 0.21875 0.225

usemtl colormap

f 20/1/1 19/11/1 18/10/1
f 17/1/1 18/10/1 19/11/1
f 13/2/1 12/3/1 16/1/1
f 16/1/1 12/3/1 14/4/1
f 16/1/1 11/5/1 13/2/1
f 15/1/1 12/3/1 13/2/1
f 14/4/1 12/3/1 8/7/1
f 13/2/1 11/5/1 9/8/1
f 12/3/1 7/6/1 8/7/1
f 11/5/1 10/9/1 9/8/1
f 10/9/1 6/5/1 9/8/1
f 9/8/1 6/5/1 2/2/1
f 8/7/1 7/6/1 5/4/1
f 7/6/1 3/3/1 5/4/1
f 4/1/1 2/2/1 6/5/1
f 5/4/1 3/3/1 4/1/1
f 4/1/1 3/3/1 2/2/1
f 1/1/1 2/2/1 3/3/1
f 48/12/1 46/22/1 47/21/1
f 47/21/1 46/22/1 45/12/1
f 47/21/1 45/12/1 42/24/1
f 46/22/1 40/23/1 45/12/1
f 45/12/1 44/26/1 42/24/1
f 45/12/1 40/23/1 43/25/1
f 44/26/1 41/12/1 42/24/1
f 43/25/1 40/23/1 41/12/1
f 38/21/1 42/24/1 41/12/1
f 41/12/1 40/23/1 38/21/1
f 40/23/1 39/22/1 38/21/1
f 37/12/1 38/21/1 39/22/1
f 33/13/1 32/14/1 36/12/1
f 36/12/1 32/14/1 34/15/1
f 36/12/1 31/16/1 33/13/1
f 35/12/1 32/14/1 33/13/1
f 34/15/1 32/14/1 28/18/1
f 33/13/1 31/16/1 29/19/1
f 32/14/1 27/17/1 28/18/1
f 31/16/1 30/20/1 29/19/1
f 30/20/1 26/16/1 29/19/1
f 29/19/1 26/16/1 22/13/1
f 28/18/1 27/17/1 25/15/1
f 27/17/1 23/14/1 25/15/1
f 24/12/1 22/13/1 26/16/1
f 25/15/1 23/14/1 24/12/1
f 24/12/1 23/14/1 22/13/1
f 21/12/1 22/13/1 23/14/1
f 27/31/9 56/31/9 23/27/2
f 49/27/2 23/27/2 56/31/9
f 32/27/5 52/27/5 27/31/9
f 56/31/9 27/31/9 52/27/5
f 33/29/8 55/29/8 35/28/6
f 53/28/6 35/28/6 55/29/8
f 33/29/8 29/30/7 55/29/8
f 54/30/7 55/29/8 29/30/7
f 29/30/7 22/29/4 54/30/7
f 51/29/4 54/30/7 22/29/4
f 35/28/6 53/28/6 32/27/5
f 52/27/5 32/27/5 53/28/6
f 22/29/4 21/28/3 51/29/4
f 50/28/3 51/29/4 21/28/3
f 21/28/3 23/27/2 50/28/3
f 49/27/2 50/28/3 23/27/2
f 59/34/1 58/33/1 57/32/1
f 58/33/1 59/34/1 60/35/1
f 60/35/1 59/34/1 61/34/1
f 60/35/1 61/34/1 62/35/1
f 61/34/7 64/34/10 63/34/7
f 64/34/10 61/34/7 59/34/10
f 66/35/11 62/35/9 65/35/9
f 62/35/9 66/35/11 60/35/11
f 58/33/13 67/32/12 57/32/12
f 67/32/12 58/33/13 68/33/13
f 68/33/14 64/34/14 67/32/14
f 64/34/14 68/33/14 66/35/14
f 64/34/14 66/35/14 63/34/14
f 63/34/14 66/35/14 65/35/14
f 68/33/13 60/35/11 66/35/11
f 60/35/11 68/33/13 58/33/13
f 59/34/10 67/32/12 64/34/10
f 67/32/12 59/34/10 57/32/12
f 63/34/6 62/35/6 61/34/6
f 62/35/6 63/34/6 65/35/6
f 71/35/14 70/37/14 69/36/14
f 70/37/14 71/35/14 72/37/14
f 72/37/14 71/35/14 73/35/14
f 72/37/14 73/35/14 74/36/14
f 74/36/15 76/35/16 75/36/15
f 76/35/16 74/36/15 73/35/16
f 79/34/1 78/36/1 77/34/1
f 78/36/1 79/34/1 80/35/1
f 80/35/1 79/34/1 76/35/1
f 76/35/1 79/34/1 75/36/1
f 80/35/17 73/35/16 71/35/17
f 73/35/16 80/35/17 76/35/16
f 72/37/6 75/36/15 79/34/6
f 75/36/15 72/37/6 74/36/15
f 78/36/18 70/37/3 77/34/3
f 70/37/3 78/36/18 69/36/18
f 79/34/7 70/37/7 72/37/7
f 70/37/7 79/34/7 77/34/7
f 80/35/17 69/36/18 78/36/18
f 69/36/18 80/35/17 71/35/17
f 83/35/9 82/35/19 81/35/9
f 82/35/19 83/35/9 84/35/19
f 86/34/3 81/35/3 85/34/3
f 81/35/3 86/34/3 83/35/3
f 84/35/19 87/33/20 82/35/19
f 87/33/20 84/35/19 88/33/20
f 91/38/22 90/34/21 89/34/21
f 90/34/21 91/38/22 92/38/22
f 89/34/21 86/34/7 85/34/7
f 86/34/7 89/34/21 90/34/21
f 81/35/14 89/34/14 85/34/14
f 89/34/14 81/35/14 82/35/14
f 89/34/14 82/35/14 91/38/14
f 91/38/14 82/35/14 87/33/14
f 87/33/20 92/38/22 91/38/22
f 92/38/22 87/33/20 88/33/20
f 90/34/1 83/35/1 86/34/1
f 83/35/1 90/34/1 84/35/1
f 84/35/1 90/34/1 92/38/1
f 84/35/1 92/38/1 88/33/1
f 95/37/23 94/34/24 93/34/23
f 94/34/24 95/37/23 96/37/24
f 96/37/1 98/35/1 97/39/1
f 98/35/1 96/37/1 99/35/1
f 99/35/1 96/37/1 95/37/1
f 99/35/1 95/37/1 100/39/1
f 96/37/24 101/40/25 94/34/24
f 101/40/25 96/37/24 97/39/25
f 103/35/14 101/40/14 102/35/14
f 101/40/14 103/35/14 94/34/14
f 94/34/14 103/35/14 93/34/14
f 93/34/14 103/35/14 104/40/14
f 104/40/26 95/37/23 93/34/23
f 95/37/23 104/40/26 100/39/26
f 98/35/9 103/35/9 102/35/9
f 103/35/9 98/35/9 99/35/9
f 103/35/6 100/39/26 104/40/26
f 100/39/26 103/35/6 99/35/6
f 97/39/25 102/35/3 101/40/25
f 102/35/3 97/39/25 98/35/3
f 109/43/14 110/44/14 108/41/14
f 108/41/14 110/44/14 107/42/14
f 110/44/14 116/45/14 107/42/14
f 107/42/14 116/45/14 105/41/14
f 116/45/14 114/44/14 105/41/14
f 112/43/14 105/41/14 114/44/14
f 54/45/7 115/44/4 116/45/7
f 114/44/4 116/45/7 115/44/4
f 111/44/8 54/45/7 110/44/8
f 116/45/7 110/44/8 54/45/7
f 115/44/4 113/43/3 114/44/4
f 112/43/3 114/44/4 113/43/3
f 113/43/3 106/41/2 112/43/3
f 105/41/2 112/43/3 106/41/2
f 53/43/6 109/43/6 52/41/5
f 108/41/5 52/41/5 109/43/6
f 111/44/8 110/44/8 53/43/6
f 109/43/6 53/43/6 110/44/8
f 52/41/5 108/41/5 56/42/9
f 107/42/9 56/42/9 108/41/5
f 56/42/9 107/42/9 106/41/2
f 105/41/2 106/41/2 107/42/9

g target-detail




usemtl colormap

f 20/1/1 19/11/1 18/10/1
f 17/1/1 18/10/1 19/11/1
f 13/2/1 12/3/1 16/1/1
f 16/1/1 12/3/1 14/4/1
f 16/1/1 11/5/1 13/2/1
f 15/1/1 12/3/1 13/2/1
f 14/4/1 12/3/1 8/7/1
f 13/2/1 11/5/1 9/8/1
f 12/3/1 7/6/1 8/7/1
f 11/5/1 10/9/1 9/8/1
f 10/9/1 6/5/1 9/8/1
f 9/8/1 6/5/1 2/2/1
f 8/7/1 7/6/1 5/4/1
f 7/6/1 3/3/1 5/4/1
f 4/1/1 2/2/1 6/5/1
f 5/4/1 3/3/1 4/1/1
f 4/1/1 3/3/1 2/2/1
f 1/1/1 2/2/1 3/3/1
f 48/12/1 46/22/1 47/21/1
f 47/21/1 46/22/1 45/12/1
f 47/21/1 45/12/1 42/24/1
f 46/22/1 40/23/1 45/12/1
f 45/12/1 44/26/1 42/24/1
f 45/12/1 40/23/1 43/25/1
f 44/26/1 41/12/1 42/24/1
f 43/25/1 40/23/1 41/12/1
f 38/21/1 42/24/1 41/12/1
f 41/12/1 40/23/1 38/21/1
f 40/23/1 39/22/1 38/21/1
f 37/12/1 38/21/1 39/22/1
f 33/13/1 32/14/1 36/12/1
f 36/12/1 32/14/1 34/15/1
f 36/12/1 31/16/1 33/13/1
f 35/12/1 32/14/1 33/13/1
f 34/15/1 32/14/1 28/18/1
f 33/13/1 31/16/1 29/19/1
f 32/14/1 27/17/1 28/18/1
f 31/16/1 30/20/1 29/19/1
f 30/20/1 26/16/1 29/19/1
f 29/19/1 26/16/1 22/13/1
f 28/18/1 27/17/1 25/15/1
f 27/17/1 23/14/1 25/15/1
f 24/12/1 22/13/1 26/16/1
f 25/15/1 23/14/1 24/12/1
f 24/12/1 23/14/1 22/13/1
f 21/12/1 22/13/1 23/14/1
f 27/31/9 56/31/9 23/27/2
f 49/27/2 23/27/2 56/31/9
f 32/27/5 52/27/5 27/31/9
f 56/31/9 27/31/9 52/27/5
f 33/29/8 55/29/8 35/28/6
f 53/28/6 35/28/6 55/29/8
f 33/29/8 29/30/7 55/29/8
f 54/30/7 55/29/8 29/30/7
f 29/30/7 22/29/4 54/30/7
f 51/29/4 54/30/7 22/29/4
f 35/28/6 53/28/6 32/27/5
f 52/27/5 32/27/5 53/28/6
f 22/29/4 21/28/3 51/29/4
f 50/28/3 51/29/4 21/28/3
f 21/28/3 23/27/2 50/28/3
f 49/27/2 50/28/3 23/27/2
f 59/34/1 58/33/1 57/32/1
f 58/33/1 59/34/1 60/35/1
f 60/35/1 59/34/1 61/34/1
f 60/35/1 61/34/1 62/35/1
f 61/34/7 64/34/10 63/34/7
f 64/34/10 61/34/7 59/34/10
f 66/35/11 62/35/9 65/35/9
f 62/35/9 66/35/11 60/35/11
f 58/33/13 67/32/12 57/32/12
f 67/32/12 58/33/13 68/33/13
f 68/33/14 64/34/14 67/32/14
f 64/34/14 68/33/14 66/35/14
f 64/34/14 66/35/14 63/34/14
f 63/34/14 66/35/14 65/35/14
f 68/33/13 60/35/11 66/35/11
f 60/35/11 68/33/13 58/33/13
f 59/34/10 67/32/12 64/34/10
f 67/32/12 59/34/10 57/32/12
f 63/34/6 62/35/6 61/34/6
f 62/35/6 63/34/6 65/35/6
f 71/35/14 70/37/14 69/36/14
f 70/37/14 71/35/14 72/37/14
f 72/37/14 71/35/14 73/35/14
f 72/37/14 73/35/14 74/36/14
f 74/36/15 76/35/16 75/36/15
f 76/35/16 74/36/15 73/35/16
f 79/34/1 78/36/1 77/34/1
f 78/36/1 79/34/1 80/35/1
f 80/35/1 79/34/1 76/35/1
f 76/35/1 79/34/1 75/36/1
f 80/35/17 73/35/16 71/35/17
f 73/35/16 80/35/17 76/35/16
f 72/37/6 75/36/15 79/34/6
f 75/36/15 72/37/6 74/36/15
f 78/36/18 70/37/3 77/34/3
f 70/37/3 78/36/18 69/36/18
f 79/34/7 70/37/7 72/37/7
f 70/37/7 79/34/7 77/34/7
f 80/35/17 69/36/18 78/36/18
f 69/36/18 80/35/17 71/35/17
f 83/35/9 82/35/19 81/35/9
f 82/35/19 83/35/9 84/35/19
f 86/34/3 81/35/3 85/34/3
f 81/35/3 86/34/3 83/35/3
f 84/35/19 87/33/20 82/35/19
f 87/33/20 84/35/19 88/33/20
f 91/38/22 90/34/21 89/34/21
f 90/34/21 91/38/22 92/38/22
f 89/34/21 86/34/7 85/34/7
f 86/34/7 89/34/21 90/34/21
f 81/35/14 89/34/14 85/34/14
f 89/34/14 81/35/14 82/35/14
f 89/34/14 82/35/14 91/38/14
f 91/38/14 82/35/14 87/33/14
f 87/33/20 92/38/22 91/38/22
f 92/38/22 87/33/20 88/33/20
f 90/34/1 83/35/1 86/34/1
f 83/35/1 90/34/1 84/35/1
f 84/35/1 90/34/1 92/38/1
f 84/35/1 92/38/1 88/33/1
f 95/37/23 94/34/24 93/34/23
f 94/34/24 95/37/23 96/37/24
f 96/37/1 98/35/1 97/39/1
f 98/35/1 96/37/1 99/35/1
f 99/35/1 96/37/1 95/37/1
f 99/35/1 95/37/1 100/39/1
f 96/37/24 101/40/25 94/34/24
f 101/40/25 96/37/24 97/39/25
f 103/35/14 101/40/14 102/35/14
f 101/40/14 103/35/14 94/34/14
f 94/34/14 103/35/14 93/34/14
f 93/34/14 103/35/14 104/40/14
f 104/40/26 95/37/23 93/34/23
f 95/37/23 104/40/26 100/39/26
f 98/35/9 103/35/9 102/35/9
f 103/35/9 98/35/9 99/35/9
f 103/35/6 100/39/26 104/40/26
f 100/39/26 103/35/6 99/35/6
f 97/39/25 102/35/3 101/40/25
f 102/35/3 97/39/25 98/35/3
f 109/43/14 110/44/14 108/41/14
f 108/41/14 110/44/14 107/42/14
f 110/44/14 116/45/14 107/42/14
f 107/42/14 116/45/14 105/41/14
f 116/45/14 114/44/14 105/41/14
f 112/43/14 105/41/14 114/44/14
f 54/45/7 115/44/4 116/45/7
f 114/44/4 116/45/7 115/44/4
f 111/44/8 54/45/7 110/44/8
f 116/45/7 110/44/8 54/45/7
f 115/44/4 113/43/3 114/44/4
f 112/43/3 114/44/4 113/43/3
f 113/43/3 106/41/2 112/43/3
f 105/41/2 112/43/3 106/41/2
f 53/43/6 109/43/6 52/41/5
f 108/41/5 52/41/5 109/43/6
f 111/44/8 110/44/8 53/43/6
f 109/43/6 53/43/6 110/44/8
f 52/41/5 108/41/5 56/42/9
f 107/42/9 56/42/9 108/41/5
f 56/42/9 107/42/9 106/41/2
f 105/41/2 106/41/2 107/42/9

