# Created by Kenney (www.kenney.nl)

mtllib target-small.mtl

g target-small

v -0.05 -0.015 -0.015 1 1 1
v -0.05 -0.06 -6.76792E-17 1 1 1
v -0.05 0 -0.02 1 1 1
v -0.05 0.015 -0.015 1 1 1
v -0.05 0.06 -6.76792E-17 1 1 1
v -0.05 0 -0.06 1 1 1
v -0.05 0.04499999 -0.045 1 1 1
v -0.05 -0.045 -0.045 1 1 1
v -0.05 -0.02 -6.76792E-17 1 1 1
v -0.05 -0.045 0.045 1 1 1
v -0.05 -0.015 0.015 1 1 1
v -0.05 0 0.02 1 1 1
v -0.05 0.04499999 0.045 1 1 1
v -0.05 0 0.06 1 1 1
v -0.05 0.015 0.015 1 1 1
v -0.05 0.02 -1.579181E-16 1 1 1
v -0.05 0 -0.1 1 1 1
v 0 0 -0.1 1 1 1
v -0.05 0.075 -0.075 1 1 1
v 0 0.075 -0.075 1 1 1
v 0 -0.075 0.075 1 1 1
v 0 -0.1 -9.023893E-17 1 1 1
v -0.05 -0.075 0.075 1 1 1
v -0.05 -0.1 -9.023893E-17 1 1 1
v 0 -0.075 -0.075 1 1 1
v -0.05 -0.075 -0.075 1 1 1
v 0 0 0.1 1 1 1
v -0.05 0 0.1 1 1 1
v 0 0.075 0.075 1 1 1
v -0.05 0.075 0.075 1 1 1
v -0.05 -0.04500001 -0.045 1 1 1
v -0.05 -0.06 -9.023893E-17 1 1 1
v -0.05 0.1 -9.023893E-17 1 1 1
v -0.05 0.05999999 -9.023893E-17 1 1 1
v -0.05 -0.04500001 0.045 1 1 1
v -0.05 -0.015 -0.015 1 1 1
v -0.05 -0.02 -9.023893E-17 1 1 1
v -0.05 0.02 -1.804779E-16 1 1 1
v -0.05 -0.015 0.015 1 1 1
v 0 0.1 -9.023893E-17 1 1 1
v 0.05 0 -0.1 1 1 1
v 0.05 -0.075 -0.075 1 1 1
v 0.05 0.075 -0.075 1 1 1
v 0.05 0.1 -9.023893E-17 1 1 1
v 0.05 -0.1 -9.023893E-17 1 1 1
v 0.05 0.075 0.075 1 1 1
v 0.05 -0.075 0.075 1 1 1
v 0.05 0 0.1 1 1 1

vn -1 0 0
vn 0 0 -1
vn 0 0.7071068 -0.7071068
vn 0 -0.7071068 0.7071068
vn 0 -1 0
vn 0 -0.7071068 -0.7071068
vn 0 0 1
vn 0 0.7071068 0.7071068
vn 0 1 0
vn 1 0 0

vt 0.59375 0.09999999
vt 0.59375 0.025
vt 0.59375 0.125
vt 0.59375 0.15
vt 0.59375 0.225
vt 0.59375 0.2
vt 0.59375 0.05
vt 0.59375 0.09166666
vt 0.59375 0.1583333
vt 0.59375 0.375
vt 0.59375 0.45
vt 0.59375 0.3
vt 0.59375 0.275
vt 0.59375 0.33
vt 0.59375 0.42
vt 0.59375 0.315
vt 0.59375 0.475
vt 0.59375 0.435
vt 0.59375 0.39
vt 0.59375 0.36
vt 0.59375 0.355
vt 0.59375 0.395
vt 0.21875 0.125
vt 0.21875 0.05
vt 0.21875 0.2
vt 0.21875 0.225
vt 0.21875 0.025

usemtl colormap

f 3/3/1 2/2/1 1/1/1
f 5/5/1 3/3/1 4/4/1
f 8/7/1 7/6/1 6/3/1
f 7/6/1 8/7/1 2/2/1
f 7/6/1 2/2/1 3/3/1
f 3/3/1 5/5/1 7/6/1
f 1/1/1 2/2/1 9/8/1
f 9/8/1 2/2/1 10/7/1
f 9/8/1 10/7/1 11/1/1
f 11/1/1 10/7/1 12/3/1
f 13/6/1 12/3/1 10/7/1
f 13/6/1 10/7/1 14/3/1
f 13/6/1 15/4/1 12/3/1
f 5/5/1 15/4/1 13/6/1
f 5/5/1 16/9/1 15/4/1
f 5/5/1 4/4/1 16/9/1
f 19/11/3 18/10/2 17/10/2
f 18/10/2 19/11/3 20/11/3
f 23/12/4 22/13/5 21/12/4
f 22/13/5 23/12/4 24/13/5
f 24/13/5 25/12/6 22/13/5
f 25/12/6 24/13/5 26/12/6
f 29/11/8 28/10/7 27/10/7
f 28/10/7 29/11/8 30/11/8
f 26/12/1 19/11/1 17/10/1
f 19/11/1 26/12/1 6/10/1
f 6/10/1 26/12/1 31/14/1
f 7/15/1 19/11/1 6/10/1
f 31/14/1 26/12/1 24/13/1
f 31/14/1 24/13/1 32/16/1
f 19/11/1 7/15/1 33/17/1
f 33/17/1 7/15/1 34/18/1
f 33/17/1 34/18/1 13/15/1
f 32/16/1 24/13/1 23/12/1
f 33/17/1 13/15/1 30/11/1
f 32/16/1 23/12/1 35/14/1
f 30/11/1 13/15/1 14/10/1
f 35/14/1 23/12/1 14/10/1
f 30/11/1 14/10/1 23/12/1
f 30/11/1 23/12/1 28/10/1
f 36/20/1 4/19/1 3/10/1
f 4/19/1 36/20/1 37/21/1
f 4/19/1 37/21/1 38/22/1
f 38/22/1 37/21/1 15/19/1
f 15/19/1 37/21/1 39/20/1
f 15/19/1 39/20/1 12/10/1
f 33/17/9 29/11/8 40/17/9
f 29/11/8 33/17/9 30/11/8
f 19/11/3 40/17/9 20/11/3
f 40/17/9 19/11/3 33/17/9
f 27/10/7 23/12/4 21/12/4
f 23/12/4 27/10/7 28/10/7
f 17/10/2 25/12/6 26/12/6
f 25/12/6 17/10/2 18/10/2
f 43/25/10 42/24/10 41/23/10
f 42/24/10 43/25/10 44/26/10
f 42/24/10 44/26/10 45/27/10
f 45/27/10 44/26/10 46/25/10
f 45/27/10 46/25/10 47/24/10
f 47/24/10 46/25/10 48/23/10
f 21/24/4 45/27/5 47/24/4
f 45/27/5 21/24/4 22/27/5
f 46/25/8 27/23/7 48/23/7
f 27/23/7 46/25/8 29/25/8
f 48/23/7 21/24/4 47/24/4
f 21/24/4 48/23/7 27/23/7
f 20/25/3 41/23/2 18/23/2
f 41/23/2 20/25/3 43/25/3
f 22/27/5 42/24/6 45/27/5
f 42/24/6 22/27/5 25/24/6
f 20/25/3 44/26/9 43/25/3
f 44/26/9 20/25/3 40/26/9
f 40/26/9 46/25/8 44/26/9
f 46/25/8 40/26/9 29/25/8
f 18/23/2 42/24/6 25/24/6
f 42/24/6 18/23/2 41/23/2

g target-small




usemtl colormap

f 3/3/1 2/2/1 1/1/1
f 5/5/1 3/3/1 4/4/1
f 8/7/1 7/6/1 6/3/1
f 7/6/1 8/7/1 2/2/1
f 7/6/1 2/2/1 3/3/1
f 3/3/1 5/5/1 7/6/1
f 1/1/1 2/2/1 9/8/1
f 9/8/1 2/2/1 10/7/1
f 9/8/1 10/7/1 11/1/1
f 11/1/1 10/7/1 12/3/1
f 13/6/1 12/3/1 10/7/1
f 13/6/1 10/7/1 14/3/1
f 13/6/1 15/4/1 12/3/1
f 5/5/1 15/4/1 13/6/1
f 5/5/1 16/9/1 15/4/1
f 5/5/1 4/4/1 16/9/1
f 19/11/3 18/10/2 17/10/2
f 18/10/2 19/11/3 20/11/3
f 23/12/4 22/13/5 21/12/4
f 22/13/5 23/12/4 24/13/5
f 24/13/5 25/12/6 22/13/5
f 25/12/6 24/13/5 26/12/6
f 29/11/8 28/10/7 27/10/7
f 28/10/7 29/11/8 30/11/8
f 26/12/1 19/11/1 17/10/1
f 19/11/1 26/12/1 6/10/1
f 6/10/1 26/12/1 31/14/1
f 7/15/1 19/11/1 6/10/1
f 31/14/1 26/12/1 24/13/1
f 31/14/1 24/13/1 32/16/1
f 19/11/1 7/15/1 33/17/1
f 33/17/1 7/15/1 34/18/1
f 33/17/1 34/18/1 13/15/1
f 32/16/1 24/13/1 23/12/1
f 33/17/1 13/15/1 30/11/1
f 32/16/1 23/12/1 35/14/1
f 30/11/1 13/15/1 14/10/1
f 35/14/1 23/12/1 14/10/1
f 30/11/1 14/10/1 23/12/1
f 30/11/1 23/12/1 28/10/1
f 36/20/1 4/19/1 3/10/1
f 4/19/1 36/20/1 37/21/1
f 4/19/1 37/21/1 38/22/1
f 38/22/1 37/21/1 15/19/1
f 15/19/1 37/21/1 39/20/1
f 15/19/1 39/20/1 12/10/1
f 33/17/9 29/11/8 40/17/9
f 29/11/8 33/17/9 30/11/8
f 19/11/3 40/17/9 20/11/3
f 40/17/9 19/11/3 33/17/9
f 27/10/7 23/12/4 21/12/4
f 23/12/4 27/10/7 28/10/7
f 17/10/2 25/12/6 26/12/6
f 25/12/6 17/10/2 18/10/2
f 43/25/10 42/24/10 41/23/10
f 42/24/10 43/25/10 44/26/10
f 42/24/10 44/26/10 45/27/10
f 45/27/10 44/26/10 46/25/10
f 45/27/10 46/25/10 47/24/10
f 47/24/10 46/25/10 48/23/10
f 21/24/4 45/27/5 47/24/4
f 45/27/5 21/24/4 22/27/5
f 46/25/8 27/23/7 48/23/7
f 27/23/7 46/25/8 29/25/8
f 48/23/7 21/24/4 47/24/4
f 21/24/4 48/23/7 27/23/7
f 20/25/3 41/23/2 18/23/2
f 41/23/2 20/25/3 43/25/3
f 22/27/5 42/24/6 45/27/5
f 42/24/6 22/27/5 25/24/6
f 20/25/3 44/26/9 43/25/3
f 44/26/9 20/25/3 40/26/9
f 40/26/9 46/25/8 44/26/9
f 46/25/8 40/26/9 29/25/8
f 18/23/2 42/24/6 25/24/6
f 42/24/6 18/23/2 41/23/2

